<svg style="height:auto;width:100%" version="1.1" viewBox="0 0 1277 648" xmlns="http://www.w3.org/2000/svg">
 <defs>
  <linearGradient id="SVGID_11_" x1="192.1" x2="231.3" y1="116" y2="116" gradientTransform="translate(16.53)" gradientUnits="userSpaceOnUse">
   <stop stop-color="#2A2A85" offset="0"/>
   <stop stop-color="#262E77" offset=".2151"/>
   <stop stop-color="#212467" offset=".4832"/>
   <stop stop-color="#1F1C5C" offset=".7514"/>
   <stop stop-color="#1C1346" offset="1"/>
  </linearGradient>
 </defs>
 <g transform="matrix(4.113 0 0 4.341 -6.644 -71.89)">
  <path class="st1" d="m222.6 133.9c53.44 55.57 72.28-9.674 56.23-38.67-10.12-18.29-2.151-22.87-4.485-32.18-2.78-11.09-11.95-20.67-28.85-28.85-23.55-11.4-28.6 4-40.8-2.9s-13.5-19.5-38.1-8.1-47.5 3.3-74.3-4.6-19.5 18.6-26.8 26.7-17 10.7-15.2 24c1.748 13.21-2.205 15 .1573 25.54 2.301 10.26 12.79 30.44 12.92 30.29-.4788.2268 43.7 14.57 62.53 12.97 14.3.6 63.6 5.1 83.5-1.1 19.7-6.2 13.2-3.1 13.2-3.1" fill="#2f91f2"/>
  <path class="st2" d="m66.66 107.8s-17.56-43.8-2.063-55.2 12-24.9 29.5-24.3 33 17.8 56.2 10.9 29.4-16.1 49.2-2.8 34.8 3.3 43.1 8.9 23.77 23.44 21.87 38.24 6.633 51.11-.6671 57.31c-23.95 8.146-43.51-2.569-54.08 3.007-14.09 7.436-30.15 4.517-47.03.6344-40.35-9.282-56.98 8.855-64.88-1.045-18.82-2.206-34.8-33.04-31.16-35.65z" fill="#a3d1fa"/>
 </g>
 <g id="Слой_11_1_" transform="matrix(4.113 0 0 4.444 -6.644 -87.08)">
  <path class="st5" d="m214.6 127h-129.2c-3.632 0-6.537-3.256-6.537-7.325v-74.88c0-4.07 2.905-7.325 6.537-7.325h129.3c3.632 0 6.537 3.256 6.537 7.325v74.88c-.1038 4.07-3.009 7.325-6.641 7.325z" fill="#1f1e5f" stroke-width="1.098"/>
  <path class="st6" d="m213.8 122.7h-128c-2.123 0-3.716-1.913-3.716-4.184v-73.05c0-2.391 1.699-4.184 3.716-4.184h128.1c2.123 0 3.716 1.913 3.716 4.184v73.05c0 2.272-1.699 4.184-3.821 4.184z" fill="#00c77e" stroke-width="1.126"/>
  <path class="st7" d="m172.1 147.5h-39.21c-1.812 0-3.235-1.1-3.235-2.5v-.2c0-1.4 1.424-2.5 3.235-2.5h39.21c1.812 0 3.235 1.1 3.235 2.5v.2c0 1.4-1.424 2.5-3.235 2.5z" fill="#1f1d5d" stroke-width="1.138"/>
  <path d="m161.7 126.7-18.64-.1118-.0677 18.02 19.13.0463z" fill="#1f1e5f"/>
  <path d="m134.9 67.66 13.87-.2572 64.9 22.52.002 19.21-108.1.005z" fill="#5b4d4d"/>
  <rect x="89.33" y="46.74" width="124.6" height="62.97" fill="#d9d3cc" stroke="#271675" stroke-linecap="square" stroke-width=".486" style="paint-order:normal"/>
  <path d="m197.1 70.64c2.437-2.275 5.57-3.924 7.832-6.416 2.623-2.89 5.472-4.35 8.652-4.858l.1174 13.71c-2.581-.5032-17.92-.7297-16.6-2.432z" fill="#888972"/>
  <path d="m89.66 71.35c23.24-.9024 46.48-1.779 69.73-2.003 17.54-.0074 34.09.4874 50.18 2.881 1.541.2819 2.575.5637 4.116.8456l-.009 36.41c-41.48.0933-82.64-.0841-124.1.008z" fill="#c9bd9e"/>
  <g stroke="#000">
   <path d="m103.9 98.94a2.358 2.16 0 01-2.357 2.16 2.358 2.16 0 01-2.358-2.159 2.358 2.16 0 012.356-2.161 2.358 2.16 0 012.359 2.158" fill="#fff" stroke-linecap="square" stroke-width=".3704" style="paint-order:normal"/>
   <path d="m109 99.01a7.571 6.997 0 01-7.57 6.997 7.571 6.997 0 01-7.573-6.994 7.571 6.997 0 017.567-7 7.571 6.997 0 017.576 6.991" fill="none" stroke-linecap="square" stroke-width=".8826" style="paint-order:normal"/>
   <path d="m99.9 56.26c-.409-.03871-.7215-.4784-.6398-.816.1092-.4502.5463-.8772.7191-.9015.2573-.06374.7298.6083.7981.8856.0744.4776-.3144.8852-.8774.8319z" fill="#fff" stroke-width=".1414"/>
   <path d="m94.05 55.33a1.376 1.221 0 01-1.375 1.221 1.376 1.221 0 01-1.376-1.221 1.376 1.221 0 011.375-1.222 1.376 1.221 0 011.376 1.22" stroke-linecap="square" stroke-width=".2761" style="paint-order:normal"/>
  </g>
  <path d="m130.8 88.54c-.9082-.4118-1.411-1.229-1.896-2.04-.5846-1.671-.3916-3.621-.4417-5.275.4228-1.11.8715-2.218 1.353-3.307 1.32-1.638 3.037-2.799 5.043-3.4.993-.5556 2.062-.4509 3.132-.2089 1.516.2984 3.54 1.308 4.275 2.328.6574.7596 1.431 1.455 1.802 2.402.5623.7806.49 1.717.5069 2.625.1235.8988-.2069 1.747-.4547 2.597-.7621 1.595-.7453 3.396-2.489 4.196-.8514.5716-1.523 1.381-2.389 1.922-1.774.1165-3.551.305-5.332.3644-1.037-.7344-2.074-1.469-3.111-2.203z" fill="#4f4343"/>
  <path d="m144.1 76.93c1.004.476 2.008.952 3.013 1.428l2.632-2.801-.9114-.9907z" fill="#39312c"/>
  <g fill="#2c2521">
   <path d="m144.1 76.93.0751 1.422 2.941 1.45-.003-1.444z"/>
   <path d="m149.7 75.56.0673.8303-2.696 3.414-.003-1.444z"/>
   <path d="m147.5 79.29 6.78 3.458.6425-2.127s-.249-.3693-.4396-.4896c-.1856-.1172-.4214-.1547-.6425-.1989-.2103-.04198-.6425-.06124-.6425-.06124l-3.517-.7344-1.403-1.04z"/>
  </g>
  <path d="m147.4 78.43 6.78 3.458.6425-2.127s-.249-.3693-.4396-.4896c-.1856-.1172-.4214-.1547-.6425-.1989-.2102-.04199-.6425-.06125-.6425-.06125l-3.517-.7344-1.234-.8874z" fill="#39312c"/>
  <path d="m149.1 76.98c.2748.5524-.0966.6329.1186 1.029l.4244.1004c.2115-.6426.1185-1.045-.2203-1.476z" fill="#2c2521"/>
  <path d="m149 76.69c.5454.3522.457.4721.5069.9012l.3837-.08808c.1051-.2724.003-.9835-.6304-1.156z" fill="#39312c"/>
  <path d="m141.5 88.54c.0187 1.1-.1621 2.301 0 3.243.3147.7018 1.131 1.164 1.906.9935.8064-.04764 1.62.1222 2.422-.01438.2031-.8511.7529-1.513 1.463-2.024.7627-.2875.6295-.9447.5112-1.596.2215-.9848.8981-1.857 1.284-2.785.1368-1.306.245-2.617.5392-3.896-.0461-.5549.3846-1.555-.5648-1.266-.4912-.03687-1.623.1823-1.259-.6094.0506-.4304.2366-1.13.8677-1.533-.349-.1754-.4396-.8993.137-1.562.8062-.09517 1.37-.2433 1.991.0033.3339.2923.687.3577 1.032.534.4334.2214.8898.1238 1.304.658.5806-.3871 1.181.3641.3813.5006-.422.2912-.2989 1.027-.8325 1.383-.1293.5413.1874 1.214.4917 1.704.8809 1.257.2313 2.828.7042 4.201.2564.8484-.0295 1.761.442 2.56.563 1.173.2026 1.592 1.031 2.643.4719.5887.569 2.384.5922 3.078-.334 1.32-.8691 2.562-1.525 3.758-.1136 1.497-.585 3.069-.9708 4.593-.2347 1.666-.4858 3.328-1.071 4.917-.3042.4474.0171 1.533-.7411 1.382-11.97-.0203-23.93-.0405-35.9-.0607.2403-1.748.5617-3.505 1.148-5.171.4684-.8887.7458-1.915 1.643-2.495.9461-.8956 2.288-1.234 3.456-1.784 1.007-.3691 2.088-.5288 3.017-1.097 1.209-.6009 2.304-1.407 3.585-1.875.7433-.5422 1.778-.8118 2.101-1.746.4538-.715.4836-1.621.5893-2.434-.0618-1.41-.2655-2.806-.459-4.204.9484.6797 1.903 1.44 3.077 2.024.7416.09411 1.489.06973 2.243.05832 1.072-.283 2.4-.1864 3.21-.254.5781-.4033.8602-1.058 1.668-1.607.1626-.07353.3252-.1471.4878-.2207z" fill="#be8034"/>
  <path d="m123.9 98.76c1.382-.2624 2.761-2.185 3.952-.7308 1.458 1.53 2.928 3.116 4.803 4.164 10.37 2.011 12.51-5.992 11.17-9.484 1.106.1816 3.487-.903 3.583.7136.5836 1.293.4285 2.757.8585 4.092.5271 3.036 1.613 5.944 3.018 8.691.1823.6674 1.14 1.88.9819 3.302l-23.8-.069c-.7628-3.835-3.049-7.12-4.565-10.68z" fill="#fff"/>
  <path d="m173.5 73.07.6086-.788c1.354-.5825 1.342.2623.8792 1.152l-.7439.6668-.4058.2425-1.014.3637c-.6592.222-.676-.02952-.8792-.4849l.6763-.4243z" fill="#44332b"/>
  <path d="m160.5 75.56-.4058 1.03c-1.019-.05463-1.634-.4631-2.435-.9698-.3548-.7773-.3646-.9966.1353-1.637 1.329.03814 1.724 1.136 2.705 1.576z" fill="#44332b"/>
  <path d="m172.8 74.71c.5832-.2517.8267-.4338 1.481-.519.6333.9004 1.267 1.801 1.9 2.701-.7451-.06227-1.514-.212-2.229.0918-.6564.1617-1.343.2885-1.89.6995-.4572.2933-.9588.5379-1.376.8799-.2762.5442-.8411.8519-1.392.448-.9539-.2754-1.883-.6657-2.869-.8179-1.042-.06842-2.088-.1678-3.092-.4637-.8352-.1703-1.683-.3407-2.431-.7597-.3505-.2181-1.048-.2578-.6624-.7599-.008-.6561.5737-.6729 1.027-.3843 1.013.3592 2.079.5444 3.135.733.817.04234 1.626-.2478 2.443-.1728 1.23.2824 2.487.4552 3.75.483.8622-.08027 1.697-.342 2.542-.5225-.1804-.4243-.1578-1.212-.3382-1.637z" fill="#2b4442"/>
  <path d="m170.1 79.25c.5712-.5273.9133-1.376 1.728-1.578.9536-.3085 1.869-.8475 2.907-.7492.7836-.03147 1.612-.1786 2.175.4722.6186.5835 1.591.4433 2.222 1.003.8675.5764 1.713 1.184 2.533 1.822.9839.0527 1.959-.0611 2.922-.2452 1.184-.1689 2.394-.07349 3.57-.3003.1301.5974.7712 1.421-.2033 1.512-.7623.321-1.678-.03922-2.369.5072-.8011.1777-1.709 1.226-2.456.61-.7749-.5017-1.56-.9876-2.343-1.477-.774.01168-1.715.456-1.69 1.31-.2692.7112.0479 1.703-.753 2.106-.6108.1768-1.312-.3257-1.973-.07047-1.556.1008-3.108-.1775-4.665-.1758l-3.972.8307c.0376-.6379-.2673-1.551-.0132-2.015 1.364-.1774 2.734-.3693 4.069-.6938.419-.2325 1.217-.4316 1.383-.7398-.6847-.3033-1.342-.6658-1.887-1.175-.3954-.3177-.7908-.6355-1.186-.953z" fill="#2f2b44"/>
  <path d="m188.2 80.01c.1111-.1313.1798-.2627.4396-.394.3907-.06573.7812-.1576 1.172-.05861.2891-.06024.545-.03178.7892.02823.1132.161.1683.341.137.5441.0897.1706.0774.3563.0321.547-.008.1773-.1649.2013-.3043.2425-.3209-.0349-.6411-.07683-.9633-.1009-.3531-.02638-.7002-.07952-1.032-.2023-.0875-.03234-.2445.0501-.3033.01082.009-.2055.0217-.411.0328-.6164z" fill="#66451b"/>
  <path d="m167.7 83.38c-.8567-.2697-1.543-.1827-2.333 0-.4753-.2095-.8885-.2327-1.249-.1167-.1497.3244-.2623.4405.1239.5482.6689.2706 1.408.2646 2.072.2959-.0369.1634-.106.3502.0353.4848.3101.1619.6692-.2229.8803-.3984.104-.05085.2248-.01552.3367-.02584h.4045c-.0891-.263-.1947-.5211-.2705-.788z" fill="#66451b"/>
  <path d="m178.9 83.56c.3398.9173 1.076 1.428 1.826 1.97 1.141.2393 1.864-.03244 2.773-.4849.6321-.9072.329-1.627.0339-2.515-2.318.5377-2.864 1.192-4.633 1.03z" fill="#2f2828"/>
  <path d="m180.8 80.83c1.216.3535 1.823 1.099 2.705 1.697-1.166.6136-3.146 1.854-4.633 1.03.0668-1.478.1107-1.59.7101-2.485.359-.3507.8457-.2513 1.217-.2425z" fill="#66451b"/>
  <g stroke="#000">
   <rect x="199" y="49.15" width="10.58" height="9.744" rx="1.293" ry="1.293" fill="none" stroke-linecap="round" stroke-linejoin="round" stroke-width=".4372" style="paint-order:normal"/>
   <g fill="#fff" stroke-width=".1678">
    <path d="m200.5 53.04-.7964-.2938-.3354-2.435.5868-.5457 2.18-.1259-.7545.7975-1.258.1679z"/>
    <path d="m200.1 50.61 1.258-.1679.7545-.7975 3.773-.7975.2096-.6296.5869.04198.2515 1.091.2515 2.015-6.749 1.217z"/>
    <path d="m207 49.35 2.222-.3358.2096 1.511-2.305.4197z"/>
    <path d="m200.5 52.58.9222-.04198.3772.9234.1676.4617.503.5457.1677.5876-.503.8815.6707.5876 2.222-.4617-.6287-4.072z"/>
    <path d="m206.4 51.65s.2179 1.057 0 1.511c-.1163.2422-.3713.4279-.6288.5037-.3908.115-1.216-.1259-1.216-.1259l-.1237-.8815s.6363.2507.962.2099c.186-.02333.4081-.08997.503-.2518.1557-.2657-.042-.9234-.042-.9234z"/>
    <path d="m203.3 56.42.5239 2.98 1.551-.2938-.5449-3.022z"/>
   </g>
   <rect x="187.3" y="56.23" width="9.473" height="1.637" rx="0" ry="0" fill="#e11818" stroke-linecap="round" stroke-linejoin="round" stroke-width=".2349" style="paint-order:normal"/>
   <g transform="matrix(.3353 0 0 .3358 -527.5 -51.67)" fill="#fff" stroke-width=".5" aria-label="14:07">
    <path d="m2134 308.8v-8.112h2.64v8.112z" style=""/>
    <path d="m2143 306.6v2.256h-2.64v-2.256h-3.28v-5.856h2.64v3.824h.64v-3.824h2.64v3.824h.672v2.032z" style=""/>
    <path d="m2144 308.8v-2.016h2.64v2.016zm0-2.528v-2.032h2.64v2.032z" style=""/>
    <path d="m2151 302.7h-.64v4.064h.64zm2.64 5.072q0 1.008-1.312 1.008h-3.296q-1.312 0-1.312-1.008v-6.08q0-1.024 1.312-1.024h3.296q1.312 0 1.312 1.024z" style=""/>
    <path d="m2157 308.8h-2.64l3.28-6.08h-3.28v-2.032h5.92v2.032z" style=""/>
   </g>
   <g transform="matrix(.3353 0 0 .3358 -522.7 -50.99)" fill="#fff" stroke-width=".5" aria-label="$350">
    <path d="m2125 316.4h-1.98v-1.848h3.007v-.4693h-1.804q-1.203 0-1.203-.9387v-2.317q0-.9387 1.203-.9387h.7774v-.4547h1.437v.4547h2.009v1.863h-3.007v.4693h1.804q1.203 0 1.203.924v2.332q0 .9387-1.203.924h-.8067v.4693h-1.437z" style=""/>
    <path d="m2135 315.9q0 .924-1.203.924h-3.021q-1.188 0-1.203-.924v-1.393h2.42v.4693h.5867v-.9387h-3.007v-1.863h3.007v-.924h-.5867v.4547h-2.42v-1.379q.015-.9387 1.203-.9387h3.021q1.203 0 1.203.9387v2.171q0 .44-.6013.6013.6013.1613.6013.616z" style=""/>
    <path d="m2141 315.9q0 .924-1.203.924h-3.021q-1.203 0-1.203-.924v-1.393h2.42v.4693h.5867v-.9387h-3.007v-4.649h5.427v2.317h-2.42v-.4547h-.5867v.924h1.804q1.203 0 1.203.924z" style=""/>
    <path d="m2144 311.3h-.5867v3.725h.5867zm2.42 4.649q0 .924-1.203.924h-3.021q-1.203 0-1.203-.924v-5.573q0-.9387 1.203-.9387h3.021q1.203 0 1.203.9387z" style=""/>
   </g>
  </g>
  <rect x="89.08" y="109.9" width="125.1" height="3.199" fill="#595869" style="paint-order:normal"/>
  <path d="m94.67 112.4 2.738-.0106-2.1e-5-.9858-1.387-.5572-1.339.5143z" fill="none" stroke="#fff" stroke-width=".1793"/>
  <rect x="89.1" y="42.57" width="125.1" height="3.93" fill="#595869" style="paint-order:normal"/>
  <path d="m108.4 46.51-19.33.0082v-3.955l23.43.02521z" fill="#373956"/>
  <g fill="none" stroke-linecap="round" stroke-linejoin="round">
   <g stroke="#fff">
    <path d="m212.8 43.7-2.149 1.875" stroke-width=".2533"/>
    <path d="m212.8 45.55-2.114-1.815" stroke-width=".3039"/>
    <path d="m204.3 43.77v1.831h2.204l-.033-1.861z" stroke-width=".2533"/>
   </g>
   <path d="m197.9 45.39 2.371.03" stroke="#f9f9f9" stroke-width=".2533"/>
  </g>
  <path d="m111.4 60.71c6.013-2.651 12.89-1.554 19.29-1.557 7.535.995 15.01-1.981 22.48-.2852 7.708.6917 13.66 6.431 21.19 7.89 3.538.9795 11.64 3.107 12.37 4.517-15.56.5605-76.21-2.414-75.34-10.56z" fill="#888972"/>
  <path d="m175 71.15c-14.04-1.051-32.42-4.256-46.2-7.161-11.8-3.733-24.82-5.971-39.24-6.573l.04094 13.94c4.228-.09341 20.87 1.847 39.89.6425 17.26-1.093 32.33-.2099 45.5-.8505z" fill="#8a9768"/>
  <path d="m107 55.44a7.045 6.374 0 01-7.043 6.374 7.045 6.374 0 01-7.046-6.371 7.045 6.374 0 017.041-6.376 7.045 6.374 0 017.049 6.368" fill="none" stroke="#000" stroke-linecap="square" stroke-width=".8126" style="paint-order:normal"/>
  <path d="m92.43 56.3-.4168-.0022.02792-1.879.3715.001.5109.994-.01159-.9936.4285-3.8e-5.0105 1.88-.3859 4e-6-.5243-1.112z" fill="#fff"/>
  <g stroke="#000">
   <path d="m205.7 100.6a5.831 5.216 0 01-5.83 5.216 5.831 5.216 0 01-5.832-5.214 5.831 5.216 0 015.827-5.218 5.831 5.216 0 015.834 5.212" fill="none" stroke-linecap="square" stroke-width=".6688" style="paint-order:normal"/>
   <path d="m205.7 89.84a4.772 4.305 0 01-4.771 4.305 4.772 4.305 0 01-4.773-4.303 4.772 4.305 0 014.769-4.307 4.772 4.305 0 014.774 4.302" fill="none" stroke-linecap="square" stroke-width=".5496" style="paint-order:normal"/>
   <g fill="#fff" stroke-width=".1779">
    <path d="m200.1 101.6c.2668.1282.7291.1266.6914.5276.1226.5971.2618 1.202.5266 1.756.2355.3698.7051.1185 1.022.0149.2476-.1227.9597-.2413.5628-.5891-.2685-.1543-.744.1608-.7479-.322-.0437-.3763-.2106-.7215-.2912-1.091-.0814-.2604-.1397-.5419-.2678-.7799l-.7419-.4608c-.1039-.3452.0139-.7402.4509-.723.3557-.2318.7087.04429 1.046.05424.3266-.2919-.0255-.8105-.4465-.6026-.281.0659-.7411.0442-.5769-.3463.0476-.3445.091-.6591-.2138-.8905.003-.2212.3496-.2205.2831-.5025.1085-.3495-.1177-.6259-.3536-.8607-.282-.1771-.708-.01697-.9626.1638-.364.2415.4074.7415-.0954.9823-.5028.139-.9701.388-1.458.5732-.4393.06153-.5732.4277-.6004.8114.0253.4149-.0905.8495.0565 1.25.129.4648.8074.0913.6687-.2005-.3679-.2371-.1369-.6666-.0478-.9772.1154-.1812.5446-.5433.6876-.3789-.1487.3651.0334.7495-.1279 1.106-.2876.3483-.2092.7634-.1973 1.174-.1431.4906-.7841-.0314-1.072-.163-.4192-.2465-.8907.1484-1.304.1482-.2475.081-.5295.5729-.0569.4638.4864-.2323.5981.4892 1.009.3871.4605-.0851.8443.173 1.249.328.3473.0802.981.399 1.057-.1548.0465-.247.158-.4673.251-.6981z"/>
    <path d="m200.9 88.76 1.299 1.247-1.666 1.663-.3998.02971-.0667.2672-.1666.1484-1.399-1.307.4332-.08913v-.2969z"/>
    <path d="m203.4 87.75c.1198.2801.1684.5496.1.8017-.1823.4434-.4294.8579-.7997 1.217l-.4664.2376-1.299-1.247.4332-.5345c.3221-.1672.6442-.3775.9663-.386.3554-.0609.7108-.1601 1.066-.08912z"/>
   </g>
  </g>
 </g>
 <g transform="translate(-82)" stroke-width="4.226">
  <path class="st44" d="m290.4 331.8-12.34-4.775c-2.057-.4341-4.114-.4341-6.17 0l-34.14 5.209c-7.816 1.302-14.4 6.946-17.28 15.19-13.16 39.94-16.04 82.48-8.227 123.7l14.4 77.27c2.057 10.85 3.94 23.15 14.18 24.06l21.82 1.942" fill="#d27b19"/>
  <path class="st45" d="m255.4 334.4 31.26-3.907c5.348-.4341 9.872 2.605 11.52 7.814l53.48 171-62.11 57.74h-37.43l-24.68-109.4c-6.993-30.39-5.348-62.08 4.114-91.6l5.348-16.5c3.291-8.248 10.28-14.33 18.51-15.19z" fill="#dc9e59"/>
  <path class="st44" d="m251.3 364.8c-3.291.4341-5.759 2.605-6.582 5.643l-6.17 22.57c-1.645 6.078 3.702 11.72 9.461 9.985l6.17-2.171c3.291-.8682 5.348-3.907 5.348-7.38v-20.4c0-4.775-3.702-8.248-8.227-8.248z" fill="#fff"/>
  <path class="st44" d="m288.3 357.9c3.702-.8682 7.404 1.736 8.227 5.209l6.17 22.57c1.234 4.775-2.057 9.985-6.993 9.985h-2.879c-3.702 0-6.582-2.605-6.993-6.512l-3.702-22.57c-.4113-4.341 2.057-8.248 6.17-8.682z" fill="#fff"/>
 </g>
 <g transform="matrix(4.113 0 0 4.341 -88.64 -71.89)">
  <g fill="#f8bfa4">
   <path d="m101.9 116.8 126.7-2e-5-.0107 5.295-123.6.06065c-3.496-1.558-3.484-3.859-3.095-5.355z" fill="#2e485a" stroke-width=".2545" style="paint-order:stroke fill markers"/>
   <path class="st47" d="m85.2 83.2 6.6 1.4c2.2-3.6 4.4-6.5 5.7-8.2l2.7-.7.9-1.3.8-.1s.4-.4.3-.7c-.5-1-1.1-.5-1.4-1-.6-.9-1.3-2-1.5-2.4-.4-.7-.5-1.7-1.5-1.4-5.7 1.3-2.8 4.9-4.1 6.4-3.6 2.8-6.7 6-9.5 9.3.4-.5.7-.9 1-1.3z"/>
   <path class="st47" d="m111.2 118-6.2.7-1.3 2.2s.3 1.2 1.3 1.3c.5 0 .7-.3.8-.7.4 1.4 2.1 2.9 2.7 3.4l-1.6 2.9c.9.8 2.1 1.6 3.7 1.8l1.1-4.6c.8-2.7-.5-7-.5-7z"/>
  </g>
  <path class="st46" d="m94.7 96.7s1.7-4.1 4.6-2.8c4.7 2.2 4 8.4 4 8.4l-1.3-2.6s1.9 4.1.1 7.3l-.1-2.8s-1.2 4.2-4.2 5.1c-3 .8-3.4.9-3.6 2.7-.1 1.8 2.5 2.7 1.7 2.7-2.8-.1-2.9-3.6-2.9-3.6l-.2 2.6s-4.3-6.3-4.4-9.5 1.1-5.5 1.1-5.5l-1.7.9c-.1-.1 4.3-9.4 6.9-2.9z" fill="#303030"/>
  <path class="st47" d="m98.5 105.7c1.1-2.8 3-6-2.5-8-.9-.3-2.8.2-3.6.3-.5 0-.5.6-1 .8-3.5 1-5.2 4-5.2 4s3.8 4.6-5.1 12c-1 .9 8.5 12.6 8.8 7.8.8-16.3 7.9-15.2 8.6-16.9z" fill="#f8bfa4"/>
  <path class="st48" d="m89.3 100.1s1.5-.6 3.5 1.5c.2.2.2.6-.1.7-.7.3-2.1.8-3.4.5-2.4-.7 0-2.7 0-2.7z" fill="#f84542"/>
  <path class="st49" d="m92.7 102.2c-.3-.2-.7-.3-1.2-.3-.6.1-1.1.4-1.4.8 1.1.1 2.1-.3 2.6-.5z" fill="#962526"/>
  <path class="st50" d="m92.6 101.9s-1.7-1.3-3.4-1.3c0 0 1.6.3 0 .5 0 0-.5-.2-.3-.6 0 0 .2-.3.4-.4.1-.1.2-.1.3-.1.6 0 2.2.1 3 1.9z" fill="#e9f8f8"/>
  <path class="st50" d="m88.5 102.3c.2.2.4.3.8.4.3.1.6.1.9.1 0 0 .2-.3-.1-.5-.4-.3-1.3-.3-1.6 0z" fill="#e9f8f8"/>
  <path class="st51" d="m89.3 102.7c.7.2 1.5.1 2.1-.1-.4-.2-.9-.2-1.4-.2-.3.1-.6.2-.7.3-.1-.1 0 0 0 0z" fill="#ffacac"/>
  <path class="st52" d="m86.6 107.8c.8 3.6-.3 12-.6 13.9l.2.2 3.9-2.7c1-8.1 3.8-10.7 5.9-12-.9-.3-1.8-.6-2.7-.9-5.5-1.9-7.1-3.7-7.1-3.7s1.6 1.9.4 5.2z" fill="#e7aa8e"/>
  <path class="st47" d="m98.4 105s1.1.1.4 1.4c-.7 1.2-3.2 1.6-2.8.1.5-1.6 2.4-1.5 2.4-1.5z" fill="#f8bfa4"/>
  <path class="st49" d="m94.4 99.8s2-1.3 3 1.4c-.1 0-.8-1.8-3-1.4z" fill="#962526"/>
  <path class="st46" d="m95.2 99s2.9-1.1 2.9 1.7c0 0-.7-2-2.9-1.7z" fill="#303030"/>
  <path class="st46" d="m92.1 98s1.7-.1 1.9.8c0 0 0-2-1.9-.8z" fill="#303030"/>
  <path class="st49" d="m93.2 99.2s.1-1.3-2-.3c.1 0 1.4-.4 2 .3z" fill="#962526"/>
  <path class="st53" d="m92 99.4-.4-.3s.1-.4 1.1-.2c1 .3 1.6 0 1.6 0l-1.6 1.5z" fill="#ffcab1"/>
  <path class="st52" d="m91.1 99.6.5-.5c.2-.2.5-.2.7.1l.5 1.1c-.1 0-.6-.5-1.7-.7z" fill="#e7aa8e"/>
  <path class="st52" d="m98.3 105.5s.3 1-1.2 1.2c0 0 .7-.4.5-.7s-.6-.2-.6-.2.7-.1.8 0c.1.2.1.4.1.4z" fill="#e7aa8e"/>
  <path class="st46" d="m96.3 105s2.2-.5 2.3-2.1c0 0 .8-.3 1.5-1.1.6-.7-.8 3.8-.8 3.8s-.5-.7-2.5.4z" fill="#303030"/>
  <path class="st54" d="m110.6 129.7c-1.6-.2-2.8-.9-3.7-1.8l-2.4 4.5-4-11.1c-1.2-3.1-5-5.3-8.6-6.6-7.3 3.2-7.9-3.8-7.9-5.2-2.5-8.7 3.1-17 8-24.8l-6.6-1.4c-21.7 25-19.6 62-19.6 62l29.9.9c-5.2-4.9-.4-8.5-3-8.5-.6 0 .7-1.2.7-1.8 0-.5-.6-.8-.5-1.2.7-3.5 2.7-5.5 2.7-5.5 1.8 14.2 11.2 16.3 11.2 16.3z" fill="#00c1b0"/>
  <path class="st56" d="m84 138.3-.2-.4c.9-.4.7-2.4.6-3.1v-.1l1-1.7s2.5-1.6 3.1-2.1c.1-.2-.4-1.3-.8-2.1-.7-1.4-1.5-3.1-1.7-4.6-.2-2.4 1.3-3.9 1.8-4.4l-.9-1.4.2-.1s1.2-.6 1.6-1.1c.3-.1.3-.2.3-.2 0-.2-.4-.6-.6-.7l.2-.4c.1 0 .8.5.8 1 0 .2 0 .4-.2.5-.4.4-1.2.8-1.5 1l.8 1.3-.2.1s-2 1.6-1.8 4.1c.1 1.4.9 3.1 1.6 4.4.7 1.4 1.1 2.3.7 2.7-.6.5-2.8 1.9-3.2 2.1l-.9 1.5c.2.7.6 3.2-.7 3.7z" fill="#00ab99"/>
  <path class="st56" d="m88.5 114.8.2-.6 1.4-.9 2 .5 1.4 1.7s-3.4.5-4.4.1c-1-.3-.6-.8-.6-.8z" fill="#00ab99"/>
  <polygon class="st55" points="91.3 117.1 94.5 115.7 94 113.1 89.9 113.1 87.5 115.3 89.9 113.6" fill="#00ddc6"/>
  <path class="st55" d="m86.6 115.1 1.1-2.7-3.4-3.3-.4.3s.1 4.8 2.7 5.7z" fill="#00ddc6"/>
  <path class="st46" d="m65.3 143.3s7.6-9.4 29.1-4.2l-.6 2.4s20.7 6.7 27.5 21.5c-13.39 1.329-16.71-4.315-13.8-3.1 0 0-12.4-8.7-24.4-4.6-2.99 4.589-21.5 9.7-17.8-12z" fill="#303030"/>
  <path class="st55" d="m86.3 80.5s3-4.6 7.1 2.5l-2.4 4.5s-3.8-4.9-8.2-2.8z" fill="#00ddc6"/>
  <path class="st55" d="m106.2 127.4s2.8 2.5 5.5 1.9l-1.6 6.6s-3.9.5-6.2-5z" fill="#00ddc6"/>
 </g>
 <rect class="st59" x="143.7" y="575.5" width="593" height="68.9" fill="#3f3e8d" stroke-width="6.415"/>
 <g id="Слой_10_1_" transform="matrix(4.113 0 0 4.341 -6.644 -71.89)">
  <path class="st60" d="m242.5 147h-28.6c-2.9 0-5.3-2.4-5.3-5.3v-51.4c0-2.9 2.4-5.3 5.3-5.3h28.6c2.9 0 5.3 2.4 5.3 5.3v51.4c0 3-2.4 5.3-5.3 5.3z" fill="url(#SVGID_11_)"/>
  <rect class="st61" x="108.3" y="141.7" width="10.7" height="3.4" fill="#2a4385"/>
  <path class="st62" d="m106 147.2h-4.9c0-1.2.9-2.1 2.1-2.1h2.8z" fill="#252769"/>
  <path class="st63" d="m184.8 149.8h-152c-.9984 0-1.854-.6-1.854-1.3s.8558-1.3 1.854-1.3h152c.9984 0 1.854.6 1.854 1.3s-.8558 1.3-1.854 1.3z" fill="#3f3e76" stroke-width="1.194"/>
  <path class="st62" d="m96.78 147.2h-8.8v-.7c0-1.5 1.3-2.8 2.8-2.8h2.5c1.9 0 3.5 1.6 3.5 3.5z" fill="#2a4385"/>
  <rect class="st62" x="106.8" y="141.7" width="1.5" height="3.4" fill="#252760"/>
  <path class="st64" d="m124 147.2h-21.2c0-1.2.9-2.1 2.1-2.1h17c1.1 0 2.1 1 2.1 2.1z" fill="#2a4385"/>
  <path class="st66" d="m240.8 145.3h-25.14c-3.009 0-5.48-2.452-5.48-5.436v-47.96c0-2.984 2.471-5.436 5.48-5.436h25.14c3.009 0 5.48 2.452 5.48 5.436v47.96c0 2.984-2.364 5.436-5.48 5.436z" fill="#f29637"/>
  <path class="st68" d="m239.9 101.1c-.1-.1284.1-.6421.1-.7705-.1-.1284-.2.1284-.3-.1284-.1-.1284-.1-.2568-.3-.1284-.2.1284-.9.6421-1 .5137-.2-.1284.3-.6421.2-.6421-.2-.1284-1 .6421-1.2 1.156-.2.3853-2.2 3.339-3.2 3.467-1 .1284-4.2-1.926-4.7-2.183-.5-.2568-1-.5137-1.1-.5137s.4-.3853.5-.5137c.1-.1284.2 0 .2-.2568v-.6421s.2.1284.1-.2568c-.1-.3853-.3-.6421-.3-.7705.1-.2568-.1-.6421-.4-.8989-.4-.2568-1-.6421-1.7-.6421-.7.1284-1.4.5137-1.3 1.413.2.7705.5 1.156.4 1.541 0 0-.8 1.413-1.2 1.669-.4.2568-2.2 1.541-3.3 1.156-1.1-.5137-2.2-2.183-2.3-2.825-.1-.6421.2-1.156 0-1.413-.2-.3853-.2-.6421-.3-.8989-.2-.2568-.3.5137-.3.6421 0 .1284-.1.1284-.3-.2568-.2-.3853-.4-1.027-.6-.6421-.2.3853-.6.8989-.5 1.284.1.3853.5.7705.7 1.413.2.5137.6 1.669.6 2.055 0 .3853.4 2.055.9 2.44.5.3852 1.2.6421 1.6.3852s2.1 0 2.2.1284c.2.1284.5.7705.4 1.284-.1.3853-.2 1.926-.2 2.568-.1.6421.2 1.156.3 1.284.2.1284.3.3853.2.5137-.1.1284-.9.7705-.9 1.798 0 .8989-.1 2.568-.2 2.825-.2.3852-.6 1.413-.6 1.669s.1 2.44.1 2.825c0 .3853 0 2.055.1 2.568.1.5137.4 2.44.3 2.954-.1.5137-.3 2.055-.3 2.44 0 .2568.1.7705.2 1.027 0 .1284.1.1284.2.1284-.2.2568-.5.6421-.7 1.027-.6.8989-.7.8989.8 1.156 1.6.2568 1.3-.7705 1.8-.7705s.5-.3852.5-.3852v-.6421h.2c.2-.1284.1-5.265.3-6.036s.2-2.183.2-2.44c0-.3853.1-2.568.3-2.825.2-.2568 1.2-2.44 2-2.568.9-.1284 2 .5137 2.6.5137s3.1.1284 3 .3853-1 1.027-1 1.541l-.7 3.596c-.1.6421-.2.7705-.5 1.027-.3.2568-.4 1.413-.5 1.669 0 .1284.1.3853.2.5137 0 0-.3.2568 0 .6421.3.3853 4.5 2.825 4.8 2.568s-.1-1.156-.4-1.413c-.4-.3853-.7-.7705-.9-1.541.1-.1284.2-.1284.3-.2568.2-.2568.1-.7705.2-.7705s.3-.2568.3-.3853c.1-.1284.2-1.156.2-1.413 0-.2568-.1-.3853.1-.6421.2-.2568.9-1.669 1.1-2.055.2-.3852.7-1.541.9-2.183.2-.5137.3-1.156.1-1.798s-.4-2.312-1.8-3.082c-1.4-.7705-2.8-.8989-3.3-.7705-.5.1284-1.3.1284-1.5 0-.2-.1284-.6-1.541-.5-1.669.1-.1284.5-.7705.4-1.284-.2-.5137-.4-1.156-.5-1.541-.1-.3852-.3-.7705-.3-1.027 0-.2568.2-1.413.6-1.284.5.1284 2.4 1.541 3.3 1.156s2.4-1.541 2.7-2.312c.4-.6421.7-1.541.9-1.669.2-.1284 1.8-.899 2-1.284.2-.3853.1-.3853 0-.5137z" opacity=".46" stroke-width="1.133"/>
  <rect class="st69" x="213" y="110.7" width="31.7" height="7.7" opacity=".72"/>
  <g transform="scale(1.067 .9374)" fill="#e23934" stroke="#fff" stroke-width=".339" aria-label="Wasted">
   <path d="m207.3 125h-1.952l-.3886-2.407-.398 2.407h-1.943l-.7866-4.805h1.564l.398 2.701.3886-2.701h1.554l.3886 2.701.398-2.701h1.564z"/>
   <path d="m210.2 123.2h-.3791v.6065h.3791zm-1.166 1.801q-.7771 0-.7771-.597v-1.81q0-.5876.7771-.597h1.166v-.597h-.3791v.2938h-1.564v-.8908q0-.6065.7771-.6065h1.952q.7771 0 .7771.6065v4.198z"/>
   <path d="m215.7 124.4q0 .6065-.7771.597h-1.952q-.7771 0-.7771-.597v-.9003h1.564v.3033h.3791v-.6065h-1.166q-.7771 0-.7771-.6065v-1.791q0-.6065.7771-.6065h1.952q.7771 0 .7771.6065v.8908h-1.564v-.2938h-.3791v.597h1.166q.7771 0 .7771.597z"/>
   <path d="m219.8 124.4q0 .6065-.7771.597h-1.952q-.7771 0-.7771-.597v-2.71h-.3886v-1.194h.3886v-.3033h1.564v.3033h1.943v1.194h-1.943v2.113h.3886v-1.81h1.554z"/>
   <path d="m222.2 121.4h-.3791v.597h.3791zm1.564 3.004q0 .597-.7771.597h-1.952q-.7771 0-.7771-.597v-3.601q0-.6065.7771-.6065h1.952q.7771 0 .7771.6065v2.398h-1.943v.6065h.3791v-.3033h1.564z"/>
   <path d="m226.1 121.4h-.3791v2.407h.3791zm-1.166 3.601q-.7961 0-.7771-.597v-3.601q-.009-.6065.7771-.6065h1.166v-1.204h1.564v6.008z"/>
  </g>
  <rect x="93.04" y="107.9" width="36.51" height="33.7" rx="4.72" ry="4.472" fill="#252769" style="paint-order:normal"/>
  <rect x="94.34" y="107.9" width="36.51" height="33.81" rx="4.72" ry="4.472" fill="#2a4385" style="paint-order:normal"/>
 </g>
 <g id="Слой_13_1_" transform="matrix(4.113 0 0 4.341 61.36 -71.89)">
  <path class="st72" d="m224.3 138.7c.9-.7 13.5-7.1 20.1-12.9 6.7-5.8 13.6-9.1 18.7-6.4s6.8 12.6 4.7 21.6-2.7 15.4-13.5 17.7-26.5 3.4-30.8 0c-4.2-3.4-8.6-12.5.8-20z" fill="#97236e"/>
  <path class="st46" d="m255.1 109.9s-.8 2.4-1.3 2.4c-.5.1.2-2.3.2-2.3z" fill="#303030"/>
  <path class="st73" d="m254 108.3s.7-1.9 1.5-1.4c.9.5.3 4.3-1.6 3.8-1.7-.5.1-2.4.1-2.4z" fill="#f7d7bb"/>
  <path class="st73" d="m253.9 111.1-.6 7 2.3.9s-5.7 2.9-9.5-1.5l2.1-.3.2-3.3z" fill="#f7d7bb"/>
  <path class="st74" d="m253.7 113.7.2-2.6-5.5 3-.2 2.8c1.6-.1 4.2-.7 5.5-3.2z" fill="#f3ba9b"/>
  <path class="st73" d="m244.7 102.5s-.8 5.3-.9 8.4 1.9 4.6 3.8 4.8c2.3.2 6.1-1.3 6.3-3.9l.6-4.7s1-3.8-1.4-5.5c-2.5-1.6-7.5-1.8-8.4.9z" fill="#f7d7bb"/>
  <g fill="#303030">
   <path class="st46" d="m254.6 107.3-.3 1.7h-.5l-.2-2.4s-.9-.8-1-1.1c-.1-.2-.3-2.7-.3-2.7s-2.3 1.2-5.4.8c0 0 2.5-.7 3.4-1.2 0 0-3.8 1.7-7-.2l1.2-.4s-1.5-.4-2.7-1.8c0 0 3.6-2 4.3-.5 0 0-1.6-.8-2.2-1.6 0 0 1.8-.5 3.4.3 0 0-1.1-1-1.4-1.8 0 0 1.6.2 3.3.8 1.1.4 1.8.7 2.8 1.8 0 0-1.8-.8-2.3-2.3 0 0 1.6-.1 3.7 1.1 1.3.7 1.9 2.6 1.9 2.6s2-.2 2.1 2-1.1 5.3-1.4 5.7c0-.2-.6-2.2-1.4-.8z"/>
   <path class="st46" d="m248.1 105.9s.1.7.6.9 2.2-.8 2.9-.4c0 0 0-.8-.6-.8-.5-.1-2.1.6-2.9.3z"/>
   <path class="st46" d="m247.2 105.9s0 .7-.4.8c-.3 0-1.9-1.4-2.4-.8 0 0-.1-.9.8-1 .7 0 1.3 1.2 2 1z"/>
  </g>
  <path class="st76" d="m247.3 106.4c-.1.8-.2 1.5-.4 2.3-.1.4-.2.7-.3 1.1s-.2.7-.4 1.1l-.1-.2c.4.1.7.2 1.1.4-.4 0-.8 0-1.2-.1h-.1v-.2c.1-.4.1-.7.2-1.1s.2-.7.3-1.1c.3-.8.6-1.5.9-2.2z" fill="#d8ac8a"/>
  <path class="st4" d="m245.4 112.9s.7-1 1.6-.8c1 .2 2.3.9 2.3.9z" fill="#fff"/>
  <polygon class="st73" points="226 130.2 230.3 132.4 242.5 125 238.3 121.7" fill="#f7d7bb"/>
  <polygon class="st74" points="226 130.2 230.3 132.4 242.5 125 238.3 121.7" fill="#f3ba9b"/>
  <path class="st77" d="m242.2 118.2s-4.2 2.5-6.2 3.6c0 0 1.3 4.7 3.2 6l3.3-1.9z" fill="#878cf3"/>
  <path class="st45" d="m242.2 118.2s-4.2 2.5-6.2 3.6c0 0 1.3 4.7 3.2 6l3.3-1.9z" fill="#d05a18"/>
  <g fill="#e87a3e">
   <path class="st44" d="m246.8 117.4s-.3 1.3 2.5 2.1 5.1-.9 5.1-.9 5.3 1.3 4.7 5.8c-.7 4.5-4.3 18.9-7.9 23.6l-14.2-10.1s5.3-17 5.3-19.7c-.1 0 1.9-.7 4.5-.8z"/>
   <path class="st78" d="m248.4 132.3c-3.2.1-6.5-.1-9.7-.5-1 3.4-1.8 6-1.8 6l14.2 10.1c2.6-3.5 5.3-12.3 6.8-18.4-2.9 1.5-5.9 2.7-9.5 2.8z" opacity=".1"/>
  </g>
  <path class="st79" d="m232.2 135.1c0 .2.2.4.4.4l4.1-.1c.2 0 .4-.2.4-.4l-.2-9.1c0-.2-.2-.4-.4-.4l-4.1.1c-.2 0-.4.2-.4.4z" fill="#3f3e76"/>
  <path class="st80" d="m236.8 135.2-.2-9.1c0-.2-.2-.4-.4-.4l-4.1.1h-.1c.1-.1.2-.2.4-.2l4.1-.1c.2 0 .4.2.4.4l.2 9.1c0 .2-.2.4-.4.4.1 0 .1-.1.1-.2z" fill="#535390"/>
  <path class="st73" d="m250.4 127.1-6.2 9.1s-2.1-1.1-6.5-3.9c-.8-4-1-1.5-1-.6-.1 0-.2-.1-.2-.1-4-2.5-.8.3-.8.3-4.3-3.7-.9.3-.9.3-4.5-2.8-.2.7-.2.7-3.6-1.8-.7.6.1 1.3.6.6 9.1 7.5 10.4 7.8 2.4.6 10.2-12 10.2-12z" fill="#f7d7bb"/>
  <path class="st74" d="m254.9 130.7c.3-.4.4-.7.4-.7l-4.9-2.9-.3.4c1.5 1.2 3.1 2.2 4.8 3.2z" fill="#f3ba9b"/>
  <polygon class="st73" points="210.5 152.7 211.1 151.5 214.8 146.3 210.2 146.1 206.8 151.1" fill="#f7d7bb"/>
  <path class="st74" d="m211.6 150.7 3.1-4.4-4.5-.3-1.8 2.6c1.2.7 2.2 1.4 3.2 2.1z" fill="#f3ba9b"/>
  <path class="st45" d="m207.2 150.7.9.7 3.4-.2-.3 3.3-10.1-.7s-.2-.5.4-1.2c.8-.9 5.7-1.9 5.7-1.9z" fill="#e04c33"/>
  <path class="st4" d="m203.8 151.6c-1.1.3-2 .7-2.4 1.1-.6.7-.4 1.2-.4 1.2l3.8.3c-.3-1-.7-1.8-1-2.6z" fill="#fff"/>
  <polygon class="st4" points="201 153.8 211.1 154.5 211.2 153.8 201.5 153.3" fill="#fff"/>
  <polygon class="st45" points="206.3 149.3 208.4 149.8 207.6 152 206.4 151" fill="#e04c33"/>
  <g fill="none" stroke="#fff" stroke-linecap="round" stroke-miterlimit="10" stroke-width=".6549">
   <line class="st81" x1="204.6" x2="205.2" y1="151.3" y2="152.1"/>
   <line class="st81" x1="205.4" x2="206" y1="151" y2="151.9"/>
   <line class="st81" x1="206.2" x2="206.8" y1="150.8" y2="151.7"/>
  </g>
  <polygon class="st82" points="201 153.4 200.9 153.6 211.1 154.2 211.1 153.9" fill="#00314e"/>
  <path class="st83" d="m207.9 147.2s11.2-19.1 13.4-19.3c4.1-.3 26.1 15.9 26.1 15.9s-1.5 7.6-7.9 7.6c-4.9 0-16.5-13.6-16.5-13.6l-10.2 13.1c0-.2-3.6-1.5-4.9-3.7z" fill="#ffc975"/>
  <path class="st84" d="m207.9 147.2s11.2-19.1 13.4-19.3c4.1-.3 26.1 16.2 26.1 16.2s-1.5 7.3-7.9 7.3c-4.9 0-16.5-13.6-16.5-13.6l-10.2 13.1c0-.2-3.6-1.5-4.9-3.7z" fill="#000e23" opacity=".1"/>
  <polygon class="st73" points="214.4 154.1 214.9 152.9 218.6 147.8 214.1 147.5 210.7 152.6" fill="#f7d7bb"/>
  <path class="st74" d="m215.5 152.1 3.1-4.4-4.5-.3-1.8 2.6c1.1.7 2.2 1.4 3.2 2.1z" fill="#f3ba9b"/>
  <path class="st44" d="m211 152.1.9.7 3.4-.2-.3 3.3-10.1-.7s-.2-.5.4-1.2c.8-.8 5.7-1.9 5.7-1.9z" fill="#e04c33"/>
  <path class="st4" d="m207.6 153c-1.1.3-2 .7-2.4 1.1-.6.7-.4 1.2-.4 1.2l3.8.3c-.3-.9-.6-1.8-1-2.6z" fill="#fff"/>
  <polygon class="st4" points="204.8 155.2 215 155.9 215 155.2 205.3 154.7" fill="#fff"/>
  <polygon class="st44" points="210.1 150.7 212.3 151.2 211.5 153.4 210.3 152.4" fill="#e04c33"/>
  <g fill="none" stroke="#fff" stroke-linecap="round" stroke-miterlimit="10" stroke-width=".6549">
   <line class="st81" x1="208.5" x2="209" y1="152.7" y2="153.6"/>
   <line class="st81" x1="209.3" x2="209.8" y1="152.5" y2="153.3"/>
   <line class="st81" x1="210.1" x2="210.6" y1="152.2" y2="153.1"/>
  </g>
  <polygon class="st82" points="204.8 154.8 204.8 155 215 155.6 215 155.3" fill="#00314e"/>
  <path class="st83" d="m212 148.2s12.6-18.2 14.7-18.2c4.2 0 25.2 17.1 25.2 17.1s-2.4 8.2-8.8 7.6c-4.9-.4-15.5-14.8-15.5-14.8l-11.1 12.3s-3.4-1.6-4.5-4z" fill="#ffc975"/>
  <path d="m109.3 59.07 10.31-.5205 3.121-1.272-.0725 1.041 26.35-1.504 8.71-10.53-8.202.4048-2.976 1.561.9436-1.272-27.58 1.966-10.89 8.906 3.121-.5205z" fill="#309bf6"/>
  <g transform="matrix(.2423 -.01954 .02062 .2295 -16.87 24.71)" fill="#fff" stroke="#000" aria-label="Victory">
   <path d="m583.4 182.6h-9.221l-3.061-18.93h6.123l1.568 10.64 1.531-10.64h6.16z"/>
   <path d="m587.6 182.6v-13.03h6.16v13.03zm0-14.19v-4.741h6.16v4.741z"/>
   <path d="m609.1 180.3q0 2.352-3.061 2.352h-7.691q-3.061 0-3.061-2.352v-14.19q0-2.389 3.061-2.389h7.691q3.061 0 3.061 2.389v5.6h-6.16v-3.248h-1.493v9.483h1.493v-4.48h6.16z"/>
   <path d="m625.5 180.3q0 2.389-3.061 2.352h-7.691q-3.061 0-3.061-2.352v-10.68h-1.531v-4.704h1.531v-1.195h6.16v1.195h7.653v4.704h-7.653v8.325h1.531v-7.131h6.123z"/>
   <path d="m634.7 168.4h-1.493v9.483h1.493zm6.16 11.83q0 2.352-3.061 2.352h-7.691q-3.061 0-3.061-2.352v-14.19q0-2.389 3.061-2.389h7.691q3.061 0 3.061 2.389z"/>
   <path d="m650.1 168.4h-1.493v2.352h1.493zm0 14.19v-7.093h-1.493v7.093h-6.16v-18.93h10.75q3.061 0 3.061 2.389v5.227q0 1.195-1.531 1.829 1.531.672 1.531 1.829v7.653z"/>
   <path d="m671.6 186.2q0 2.352-3.061 2.352h-10.75v-4.704h7.653v-1.195h-4.592q-3.024 0-3.061-2.352v-16.58h6.16v14.22h1.493v-14.22h6.16z"/>
  </g>
 </g>
 <path d="m503.6 545.9c.1557 6.271.1451 4.811.8328 7.083 7.568 25.01 27.37 23.34 37.35 9.522 15.34-21.24 14.79-69.88 15.22-84.4" fill="none" stroke="#fff" stroke-linecap="round" stroke-linejoin="round" stroke-width="3.2"/>
 <g fill="#d4e3ed">
  <path d="m499.6 550h8v-6.811h-2v-1.579l-4-9e-3v1.588h-2z"/>
  <path d="m553.1 483.5h8v-6.152h-2v-1.426l-4-8e-3v1.434h-2z"/>
  <path d="m443.7 613a4.419 4.253 0 01-4.419 4.253 4.419 4.253 0 01-4.42-4.252 4.419 4.253 0 014.417-4.255 4.419 4.253 0 014.422 4.25" style="paint-order:normal"/>
 </g>
 <path d="m439.2 613.5c-.2193 3.771-.1701 7.494.9578 9.583 10.04 18.59 29.15 13.51 36.6 6.272 18.79-18.25 14.79-69.88 15.22-84.4" fill="none" stroke="#fff" stroke-linecap="round" stroke-linejoin="round" stroke-width="3.2"/>
 <path d="m488 549.9h8v-6.811h-2v-1.579l-4-9e-3v1.588h-2z" fill="#d4e3ed"/>
 <g transform="matrix(.7038 -.09332 .09611 .6524 158.5 103.5)" fill="#ffcc12" stroke="#000" aria-label="#">
  <path d="m529.5 167.1h-4.526l-1.117 4.454h4.039v3.438h-4.898l-1.303 5.07h-3.452l1.275-5.07h-3.781l-1.275 5.07h-3.509l1.289-5.07h-3.867v-3.438h4.727l1.103-4.454h-4.197v-3.423h5.056l1.232-4.941h3.509l-1.232 4.941h3.767l1.246-4.941h3.509l-1.246 4.941h3.652zm-7.964-.0286h-3.839l-1.146 4.526h3.853z" fill="#ffcc12" stroke="#000"/>
 </g>
 <g transform="rotate(-4.864 -194.3 256.8)" fill="#ffcc12" stroke="#000" aria-label="1">
  <path d="m573.5 237.1h-18.12v-4.74h5.724v-14.35h-5.724v-4.43q1.312 0 2.516-.1458 1.203-.1641 2.005-.5469.9479-.4557 1.422-1.185.474-.7292.5469-1.823h6.034v22.48h5.596z" fill="#ffcc12" stroke="#000"/>
 </g>
 <path d="m1073 397.5a2.744 3.27 0 01-2.744 3.27 2.744 3.27 0 01-2.745-3.269 2.744 3.27 0 012.743-3.272 2.744 3.27 0 012.746 3.268" fill="#303030" style="paint-order:normal"/>
 <path d="m1090 396.9a2.744 3.27 0 01-2.744 3.27 2.744 3.27 0 01-2.745-3.269 2.744 3.27 0 012.743-3.272 2.744 3.27 0 012.746 3.268" fill="#303030" style="paint-order:normal"/>
 <path d="m1088 397a1.157 1.511 0 01-1.157 1.511 1.157 1.511 0 01-1.157-1.511 1.157 1.511 0 011.156-1.512 1.157 1.511 0 011.158 1.51" fill="#fff" style="paint-order:normal"/>
 <path d="m1071 397.4a1.157 1.511 0 01-1.157 1.511 1.157 1.511 0 01-1.157-1.511 1.157 1.511 0 011.156-1.512 1.157 1.511 0 011.158 1.51" fill="#fff" style="paint-order:normal"/>
</svg>
