<svg version="1.1" viewBox="0 0 67.74 61.93" xmlns="http://www.w3.org/2000/svg">
<g transform="translate(-3.401 -13.75)" display="none">
<path d="m-47-20.71h394.5c2.493 0 4.5 2.007 4.5 4.5v128c0 2.493-2.007 4.5-4.5 4.5h-394.5c-2.493 0-4.5-2.007-4.5-4.5v-128c0-2.493 2.007-4.5 4.5-4.5z" display="inline" fill="#ebece8" fill-opacity=".983" stroke="#ff62ff" stroke-linecap="round" stroke-linejoin="round" stroke-width="8" style="paint-order:stroke fill markers"/>
</g>
<flowRoot transform="translate(256.1 50.73)" fill="#000000" font-family="sans-serif" font-size="12px" letter-spacing="0px" word-spacing="0px" style="line-height:1.25" xml:space="preserve"><flowRegion><rect x="-128.4" y="-44.76" width="17.62" height="49.26"/></flowRegion><flowPara/></flowRoot>
<rect x="17.46" y="13.83" width="35.89" height="30.58" rx=".3083" ry=".3146" fill="#fff" stroke-width=".8407" style="paint-order:normal"/>
<g>
<path d="m7.433 14.13c7.961-4.359 15.88-8.817 23.87-13.11 4.255-1.55 6.305.8333 10.05 2.634 6.094 3.384 12.25 6.69 18.3 10.12 4.018 2.776 2.695 4.604 2.971 9.361-.01623 7.123.1139 14.27-.000496 21.38-.07983 1.27-.72 2.407-1.878 3.223l-25.02 13.94c-1.562.5415-3.159.02071-4.677-.3826-8.037-4.44-16.07-8.88-24.11-13.32-.7916-.9266-1.682-1.986-1.682-3.348-.3238-2.993-.06932-6.037-.1638-9.05.02428-5.816-.1342-11.64.01617-17.45.1572-1.917 1.557-3.535 2.319-3.995z" fill="#4a4a4a" stroke="#000" stroke-width=".2978"/>
<path d="m10.54 38.87h2.281c.03641-3.499-.06893-7.007.05309-10.5.5133-2.588 3.683-4.376 6.272-3.384 2.144.8442 3.11 3.222 2.848 5.34-.3376 4.213 3.233 8.325 7.664 8.573 1.56.1623 3.211.04894 4.653-.5706 1.64-.8383 3.003-2.145 4.071-3.586 1.981-2.991 1.326-7.035-1.174-9.63-.9346-1.092-2.221-1.902-3.659-2.348-2.953-.8112-5.408-.3431-7.544.9432l-.02427 2.851c1.885-.9965 2.811-1.665 4.392-1.814 1.522.01632 2.713.2831 4.474 1.441 1.464 1.184 2.323 2.97 2.098 4.821-.1277 1.555-.6972 3.102-2.029 4.049-1.539 1.37-3.836 1.961-5.87 1.404-1.861-.4942-3.476-1.813-4.102-3.582-.8801-1.855.07175-3.876-.723-5.669-.4874-1.631-1.523-3.19-3.176-3.93-6.848-2.997-10.18 2.378-10.36 3.941-.4244 1.144-.2116 3.862-.18 5.793-.01616 1.953.0042 3.906.03641 5.858z" fill="#00cdf4"/>
<path d="m56.76 35.81.0042 2.411c-4.637 1.205-7.814-2.029-8.776-3.399-1.832 2.694-4.19 3.8-8.745 3.539l-.0081-2.497c2.97.5982 6.06-.1408 7.542-4.042.15-.6947.1066-1.417.1013-2.06-.6875-3.223-4.628-4.605-7.577-4.37l-.0082-2.271c4.022-.7473 7.018.6535 8.836 3.382 1.314-2.074 3.403-3.447 6.295-3.576.1791.0247.9396-.1741 2.334.1667l-.0081 2.346c-3.21-.3998-6.222.4788-7.298 4.06-.08428.9578-.02831 1.809.05351 2.336.7801 2.807 3.254 4.82 7.256 3.973z" fill="#00cdf4"/>
</g>
</svg>
