<svg version="1.1" viewBox="0 0 67.74 61.93" xmlns="http://www.w3.org/2000/svg">
<g transform="translate(-3.401 -13.75)" display="none">
<path d="m-47-20.71h394.5c2.493 0 4.5 2.007 4.5 4.5v128c0 2.493-2.007 4.5-4.5 4.5h-394.5c-2.493 0-4.5-2.007-4.5-4.5v-128c0-2.493 2.007-4.5 4.5-4.5z" display="inline" fill="#ebece8" fill-opacity=".983" stroke="#ff62ff" stroke-linecap="round" stroke-linejoin="round" stroke-width="8" style="paint-order:stroke fill markers"/>
</g>
<flowRoot transform="translate(256.1 50.73)" fill="#000000" font-family="sans-serif" font-size="12px" letter-spacing="0px" word-spacing="0px" style="line-height:1.25" xml:space="preserve"><flowRegion><rect x="-128.4" y="-44.76" width="17.62" height="49.26"/></flowRegion><flowPara/></flowRoot>
<g>
<rect x="16.94" y="18.66" width="35.7" height="29.62" rx=".3084" ry=".3146" fill="#fff" style="paint-order:normal"/>
<path d="m1.464 28.87-.4335-2.651 22-4.385-.1809 3.637z" fill="#f87c67"/>
<g stroke-linecap="round" stroke-linejoin="round" stroke-width="1.57">
<path d="m1.832 27.22 40.42-8.454-11.09-17.27c-1.567.6983-3.144 1.343-4.581 2.291l-23.51 15.52c-.8064.5321-1.186 1.486-1.277 2.479-.1019 1.11-.2571 2.187-.1272 3.295.08299.7111.1083 1.427.1624 2.141z" fill="#9569f8" stroke="#9569f8"/>
<path d="m27.48 3.12 22.95 32.44 13.12-15.96c-1.257-1.124-2.464-2.276-3.922-3.196l-23.85-15.05c-.8181-.5161-1.901-.5056-2.917-.2278-1.137.3107-2.26.5625-3.312 1.076-.6748.3293-1.375.6095-2.063.9142z" fill="#48aefa" stroke="#48aefa"/>
<path d="m61.48 17.49-24.72 31.27 20.38 6.247c.7005-1.492 1.447-2.951 1.875-4.552l7.016-26.21c.2404-.8988-.1349-1.855-.7553-2.662-.6941-.9026-1.324-1.813-2.192-2.572-.5568-.487-1.073-1.013-1.61-1.52z" fill="#87ea39" stroke="#87ea39"/>
</g>
<path d="m22.92 61.37-2.601.06803.4335-22.37 4.84 2.311z" fill="#f1da3d"/>
<path d="m20.43 60.65 1.672-35.63-19.83 3.996c.3009 1.607.1105 1.407.702 2.962l9.678 25.45c.332.8727 1.209 1.47 2.202 1.815 1.111.3861 2.173.8119 3.343.9876.7506.1127 1.491.2793 2.236.419z" fill="#f87c67" stroke="#f87c67" stroke-linecap="round" stroke-linejoin="round" stroke-width="1.57"/>
<path d="m57.74 53.97-33.78-12.47-1.358 19.14c1.716.2292 1.388.03276 3.142-.01338l26.32-.6957c.9845-.02603 1.86-.6258 2.517-1.407.7345-.8737 1.494-1.692 2.035-2.684.3469-.6366.7447-1.247 1.117-1.871z" fill="#f1da3d" stroke="#f1da3d" stroke-linecap="round" stroke-linejoin="round" stroke-width="1.57"/>
</g>
</svg>
