<svg width="120" height="120" version="1.1" viewBox="0 0 120 120" xmlns="http://www.w3.org/2000/svg">
 <g transform="translate(260.9 5)" stroke-linecap="round" stroke-linejoin="round">
  <g stroke-linecap="round" stroke-linejoin="round">
   <path d="m-154.2 18.66a7.016 7.016 0 0 0-5.256 1.1l-44.41 30.32-40.39-21.45a7.016 7.016 0 0 0-9.488 2.904 7.016 7.016 0 0 0 2.904 9.488l44.13 23.44a7.017 7.017 0 0 0 7.246-0.4004l47.91-32.71a7.016 7.016 0 0 0 1.84-9.752 7.016 7.016 0 0 0-4.494-2.939z" color="#000000" fill="#5eb342" style="-inkscape-stroke:none;paint-order:stroke fill markers"/>
   <path d="m-154 33.31a7.016 7.016 0 0 0-5.258 1.1l-44.41 30.31-40.39-21.45a7.016 7.016 0 0 0-9.486 2.904 7.016 7.016 0 0 0 2.904 9.488l44.13 23.44a7.017 7.017 0 0 0 7.248-0.4004l47.91-32.71a7.016 7.016 0 0 0 1.84-9.75 7.016 7.016 0 0 0-4.494-2.939z" color="#000000" fill="#ffd310" style="-inkscape-stroke:none;paint-order:stroke fill markers"/>
   <path d="m-153.5 47.62a7.016 7.016 0 0 0-5.256 1.1l-44.41 30.31-40.39-21.45a7.016 7.016 0 0 0-9.488 2.906 7.016 7.016 0 0 0 2.906 9.486l44.13 23.44a7.017 7.017 0 0 0 7.248-0.4023l47.91-32.71a7.016 7.016 0 0 0 1.84-9.752 7.016 7.016 0 0 0-4.496-2.938z" color="#000000" fill="#cb3a23" style="-inkscape-stroke:none;paint-order:stroke fill markers"/>
   <path d="m-152.7 63.36a7.016 7.016 0 0 0-5.256 1.1l-44.41 30.31-40.39-21.45a7.016 7.016 0 0 0-9.488 2.906 7.016 7.016 0 0 0 2.906 9.486l44.13 23.44a7.017 7.017 0 0 0 7.248-0.4023l47.91-32.71a7.016 7.016 0 0 0 1.838-9.75 7.016 7.016 0 0 0-4.494-2.939z" color="#000000" fill="#18a5d8" style="-inkscape-stroke:none;paint-order:stroke fill markers"/>
  </g>
  <path d="m-204.1 40.01-38.81-21.9 37.15-20.64 40.14 14.09z" fill="#5eb342"/>
 </g>
</svg>