<svg enable-background="new 0 0 300.6 165" version="1.1" viewBox="0 0 300.6 165" xml:space="preserve" xmlns="http://www.w3.org/2000/svg">
<style type="text/css">.st0{opacity:0.67;}.st1{fill:#9DCBF9;}.st2{fill:#FFAE0B;}.st5{fill:#9A5BFD;}.st6{fill:#FFFFFF;}.st9{fill:#303030;}.st10{fill:#040411;}.st12{fill:#0D0A3E;}.st13{fill:#272525;}.st14{display:none;}.st15{display:inline;}.st16{fill:#2F3333;}.st17{fill:#424949;}.st18{fill:#9FB6BC;}.st19{fill:#5D767C;}.st20{fill:#3B5256;}.st21{fill:none;stroke:#FFFFFF;stroke-width:0.75;stroke-linecap:round;stroke-miterlimit:10;stroke-dasharray:6;}.st22{display:none;opacity:0.33;fill:#385A66;enable-background:new    ;}.st23{opacity:0.33;fill:#385A66;enable-background:new    ;}.st24{fill:#936457;}.st25{fill:none;stroke:#FFFFFF;stroke-width:0.25;stroke-miterlimit:10;}.st26{fill:none;stroke:#FFFFFF;stroke-width:0.25;stroke-linecap:round;stroke-miterlimit:10;}.st27{fill:#385A66;}.st28{fill:#929393;}.st29{fill:#5E6060;}.st30{fill:#EDEDED;}.st31{fill:#1D1D1D;}.st32{fill:#D6D4D6;}.st33{fill:#1C2D35;}.st34{fill:#9A5F4C;}.st35{fill:none;stroke:#2F3333;stroke-miterlimit:10;}.st36{fill:#98634C;}.st37{fill:none;stroke:#FFFFFF;stroke-width:0.5;stroke-linecap:round;stroke-miterlimit:10;}.st38{fill:none;stroke:#FFFFFF;stroke-width:0.75;stroke-linecap:round;stroke-miterlimit:10;}.st39{font-family:'ArialMT';}.st40{font-size:11.2863px;}.st41{display:inline;fill:none;stroke:#5E3718;stroke-width:0.25;stroke-linecap:round;stroke-miterlimit:10;}.st42{display:inline;fill:none;stroke:#000000;stroke-width:0.1;stroke-linecap:round;stroke-miterlimit:10;}.st43{display:inline;fill:#210000;}.st44{display:inline;fill:#DB5F27;}.st45{display:inline;fill:none;stroke:#000000;stroke-width:0.2;stroke-linecap:round;stroke-miterlimit:10;}.st47{fill:#73AF2E;}.st48{fill:#00BAD9;}.st49{fill:url(#SVGID_2_);}.st50{fill:url(#SVGID_3_);}.st51{fill:url(#SVGID_4_);}.st52{fill:url(#SVGID_5_);}.st53{fill:url(#SVGID_6_);}.st54{fill:url(#SVGID_7_);}.st55{fill:url(#SVGID_8_);}.st56{fill:url(#SVGID_9_);}.st57{fill:url(#SVGID_10_);}.st58{fill:#0092C4;}.st59{fill:url(#SVGID_11_);}.st60{fill:#252769;}.st61{fill:url(#SVGID_12_);}.st62{opacity:0.15;}.st63{fill:#FD5177;}.st64{fill:#F7891B;}.st65{fill:#D8E9FD;}.st66{fill:#608C28;}.st67{fill:url(#SVGID_13_);}.st68{fill:#452A9B;}.st69{fill:#D8234F;}.st70{fill:url(#SVGID_14_);}.st71{opacity:0.51;fill:#FFFFFF;}.st72{fill:#46D73D;}.st73{font-family:'CocogoosePro-SemiLightItalic';}.st74{font-size:2.8562px;}.st75{fill:#4DDA43;}.st76{fill:#C0B1BB;}.st77{fill:#B09FAB;}.st78{fill:#DBD1D7;}.st79{fill:#CEC0CA;}.st80{fill:#A18F9B;}.st81{fill:#00F5C1;}.st82{fill:#90818B;}.st83{fill:#FFE000;}.st84{fill:#FF546A;}.st85{opacity:0.24;fill:#3D4046;enable-background:new    ;}.st86{fill:#898583;}.st87{fill:#C3BEBB;}.st88{fill:#EAE3E0;}.st89{opacity:0.44;}.st90{opacity:0.42;}.st91{fill:#FBF4F1;}.st92{opacity:0.17;}.st93{fill:#5C5C5C;}.st94{opacity:0.58;fill:#C3BEBB;enable-background:new    ;}</style><rect x=".02514" y=".01092" width="300.6" height="165" rx="0" ry="0" fill="#2f91f2" style="paint-order:normal"/><g class="st0"><path class="st1" d="m82.7 14s2.4-5.3 8.9-3.7c6.4 1.5 9.2-7.6 14.9-7s3.7 5.9 11 7c7.3 1.2 9.4-1.7 12.5 3.7h-47.3z"/><path class="st1" d="m179.5 77.4s2.4-5.3 8.9-3.7c6.4 1.5 9.2-7.6 14.9-7s3.7 5.9 11 7c7.3 1.2 9.4-1.7 12.5 3.7h-47.3z"/><path class="st1" d="m235 159.1c4.5-4.7 14-15.2 11.3-31.6-1.8-11.2-3.1-28-46.4-39.1-50-12.9-43.1-48.4-72.6-63.2-33-16.6-63.1 2.8-55.7 35.7 7.2 32-12.1 32.6-21.5 51.9-10.8 22.2 7.7 46.5 28.8 46.4h156.1z"/><path class="st1" d="m62.5 37.7.6-3.1-2.9-.6c0-.8-.1-1.5-.4-2.3l2.4-1.6-1.7-2.6-2.3 1.5c-.7-.7-1.5-1.2-2.3-1.6l.6-2.9-3.1-.6-.6 3c-.6 0-1.3.2-1.9.4l-1.6-2.4-2.6 1.7 1.5 2.3c-.7.7-1.2 1.5-1.6 2.3l-2.5-.5-.6 3.3 2.6.5c0 .8.2 1.6.6 2.4l-2.3 1.5 1.7 2.6 2.4-1.6c.7.6 1.5 1 2.3 1.3l-.6 2.9 3.1.6.6-3.1c.7-.1 1.3-.2 2-.5l1.5 2.3 2.6-1.7-1.6-2.4c.4-.5.8-1 1-1.6l3.1.5zm-7.7-1.2c-1.3.9-3.1.5-4-.8s-.5-3.1.8-4 3.1-.5 4 .8c.8 1.3.5 3.1-.8 4z"/><path class="st1" d="m207.1 34.3.6-3.1-2.9-.6c0-.8-.1-1.5-.4-2.3l2.4-1.6-1.7-2.6-2.3 1.5c-.7-.7-1.5-1.2-2.3-1.6l.6-2.9-3.1-.6-.6 3c-.6 0-1.3.2-1.9.4l-1.6-2.4-2.6 1.7 1.5 2.3c-.7.7-1.2 1.5-1.6 2.3l-2.5-.5-.6 3.1 2.6.5c0 .8.2 1.6.6 2.4l-2.3 1.5 1.7 2.6 2.4-1.6c.7.6 1.5 1 2.3 1.3l-.6 2.9 3.1.6.6-3.1c.7-.1 1.3-.2 2-.5l1.5 2.3 2.6-1.7-1.6-2.4c.4-.5.8-1 1-1.6zm-7.7-1.2c-1.3.9-3.1.5-4-.8s-.5-3.1.8-4 3.1-.5 4 .8.5 3.1-.8 4z" fill="#9dcbf9"/><path class="st1" d="m71.3 20 .3-1.7-1.6-.3c0-.4-.1-.8-.2-1.2l1.3-.9-1-1.4-1.2.8c-.4-.4-.8-.7-1.3-.9l.3-1.6-1.7-.3-.3 1.6c-.3 0-.7.1-1 .2l-.9-1.2-1.4 1 .8 1.2c-.4.4-.7.8-.9 1.3l-1.4-.3-.2 1.7 1.4.3c0 .4.1.9.3 1.3l-1.2.8 1 1.4 1.3-.9c.4.3.8.6 1.3.7l-.3 1.6 1.7.3.3-1.7c.4 0 .7-.1 1.1-.3l.8 1.2 1.4-1-.9-1.3.6-.9 1.6.5zm-4.3-.6c-.7.5-1.7.3-2.2-.4s-.3-1.7.4-2.2 1.7-.3 2.2.4.4 1.7-.4 2.2z"/><path class="st1" d="m222.4 45.89.3-1.7-1.6-.3c0-.4-.1-.8-.2-1.2l1.3-.9-1-1.4-1.2.8c-.4-.4-.8-.7-1.3-.9l.3-1.6-1.7-.3-.3 1.6c-.3 0-.7.1-1 .2l-.9-1.3-1.4 1 .8 1.2c-.4.4-.7.8-.9 1.3l-1.4-.3-.3 1.7 1.4.3c0 .4.1.9.3 1.3l-1.2.8 1 1.4 1.3-.9c.4.3.8.6 1.3.7l-.3 1.6 1.7.3.3-1.7c.4 0 .7-.1 1.1-.3l.8 1.2 1.4-1-.9-1.3.6-.9zm-4.2-.7c-.7.5-1.7.3-2.2-.4s-.3-1.7.4-2.2 1.7-.3 2.2.4.3 1.7-.4 2.2z" fill="#9dcbf9"/></g><path d="m106 126.9c-66.68-36.37-39.68-119.8 70.85-104.2" fill="none" stroke="#fff" stroke-dasharray="6, 6" stroke-linecap="round" stroke-linejoin="round"/><g id="Слой_4_1_"><g id="Слой_3_2_"><path class="st2" d="m207.2 158.9h-55.4v-47.8c0-14.7 11.9-26.6 26.6-26.6 15.9 0 28.9 12.9 28.9 28.9v45.5z" fill="#ffd10b"/><path class="st3" d="m122 137.7c12.21 2.931 14.94-18.15 17.72-25.45.6-1.6.382-2.847.382-2.847l-8.7-5.9s-.5 1-1.4 2.5c-4.1 7.6-15.2 29.8-8 31.7z" fill="#f7d7bb"/><path class="st4" d="m130 106 9.718 6.247c.6-1.6.382-2.847.382-2.847l-8.7-5.9c0-.1-.6.9-1.4 2.5z" fill="#d0662b"/><path d="m146.5 102.9c-.635 3.856-1.147 7.731-1.7 11.6-3.705-2.508-7.491-4.892-11.15-7.47-1.251-1.062-3.493-1.857-4.118-3.084 3.472-6.474 6.991-13.03 11.83-18.6 1.286-1.422 3.987-3.269 5.74-4.073 1.027.8158-1.09 3.281-.8019 4.556.0209 5.197-.0841 10.4.0722 15.59.0411.4927.0821.9855.1232 1.478z" fill="#e87a3e"/><path class="st6" d="m137.9 109.9.8.5.4-2.1 2-10.3c0-.2-.1-.5-.3-.5s-.5.1-.5.3l-1.7 8.5-.4 1.9-.3 1.7z"/><path d="m203.2 122.2c-5.507.2577-11 .7129-16.5 1.1-.5384-2.984-.2713 3.299-.4219 4.493-1.112 14.18-1.586 20.67-1.676 31.01l-49.81.3496c3.57-20.94 5.571-41.24 6.585-63.24.8456-3.928 1.855-7.84 2.827-11.71 2.394-4.196 7.805-4.427 11.96-5.798 5.729-1.655 11.7-1.594 17.6-1.282 4.021-.6652 6.836 2.685 9.997 4.604 5.741 4.49 12.48 8.656 15.33 15.71 2.837 7.1 3.723 14.85 4.134 22.43.0114.7809.004 1.562-.0254 2.342z" fill="#e87a3e"/><path class="st6" d="m171.5 91.8c.2.1.5 0 .6-.3.1-.2 0-.5-.3-.6-9.7-3.8-10.6-10.5-10.6-10.5 0-.3-.3-.4-.5-.4-.3 0-.4.3-.4.5 0 .3.9 7.2 11.2 11.3z"/><path class="st6" d="m166.6 93.1c.2.1.5 0 .6-.3.1-.2 0-.5-.3-.6-5.3-2.2-6-5.3-6-5.3 0-.3-.3-.4-.6-.4s-.4.3-.4.6c.2.1.9 3.6 6.7 6z"/><path class="st6" d="m182.9 103.7 1.2 8.6.3 2 1.9 13.6.1-5.6-1.2-8.3-1.5-10.4c0-.2-.3-.4-.5-.4s-.4.3-.3.5z"/><path class="st6" d="m184.8 114.5c.1 0 .2 0 .2-.1.2-.1.3-.4.1-.6l-2.9-4.2c-.1-.2-.4-.3-.6-.1-.2.1-.3.4-.1.6l2.9 4.2c.1.1.2.2.4.2z"/><path class="st3" d="m167.7 82.1c6.5 2.7 10-4 10-4-1.4-2.9-2.6-8.5-2.9-11.3-.2-1.4-.2-2.3-.2-2.3l-12.1 7.9.6 5.1.2 1.2c-.1 0 .4 1.8 4.4 3.4z" fill="#f7d7bb"/><path class="st7" d="m163.1 77.5c6.6-2 10.4-8.1 11.6-11.4-.2-1.4-.1-1.6-.1-1.6l-12.1 7.9.6 5.1z" fill="#dbb798"/><path d="m187.8 123.4c.2257 4.529.3067 9.08.775 13.6.4907 5.035.6061 10.15 1.925 15.06.7787 2.532 2.22 5.249 4.855 6.206 2.009.7178 3.943-.8362 4.819-2.541 1.754-3.241 2.021-7.011 2.397-10.61.5765-7.199.3286-14.44-.471-21.62.1247-.957-.1285-1.548-1.117-1.214-4.394.3714-8.789.7427-13.18 1.114z" fill="#f7d7bb"/><path class="st4" d="m187.8 122.7c0 .6 0 1.88.1 2.58l14.3-1.5c-.1-.7-.1-1.2-.1-1.5l-.1-.1z" fill="#d0662b"/><path class="st3" d="m128.8 132.9s3-3.6-6.2-15.3-10.5-16-13.7-18c-8.5-5.1 4.1 37.9 13.1 38.1 4.5.1 6.8-4.8 6.8-4.8z" fill="#f7d7bb"/><path class="st8" d="m102.6 96.9s-2.9-1.9-3.2-4.7c-.2-2.7 1.6-4.7 1.6-4.7l1.6 9.4z" fill="#d9a373"/><path class="st11" d="m99.2 81.8 3.6 16.8c.2.7.8 1.3 1.5 1.3h9c1 0 1.8-1 1.6-2l-3.6-16.8c-.2-.8-.8-1.3-1.6-1.3h-8.9c-1 0-1.8 1-1.6 2z" fill="#fff"/><path class="st12" d="m99.2 81.8 3.6 16.8c.2.7.8 1.3 1.5 1.3h7.4c1 0 1.8-1 1.6-2l-3.6-16.8c-.2-.7-.8-1.3-1.5-1.3h-7.4c-1 0-1.8 1-1.6 2z"/><path class="st3" d="m106.7 105.6s-4.3-6-6.3-12.5c-2-6.6-1-12.1-1-12.1s.8-.9 1.4 2.3 1.1 5.7 1.1 5.7-1.1-10.6 0-10.8c1.2-.2 2.2 10.3 2.2 10.3s-.2-9.1.6-9.6 1.3 7.1 1.7 9.2c0 0 .2-5.7 1.1-6.1s.9 6.6 1.5 8.7c.6 2 2.9 3.8 3 7.1.2 3.3-.9 8.7-5.3 7.8z" fill="#f7d7bb"/><path d="m163.5 158.9c10.73.0789 21.46.0305 32.19-.009 3.257-.4615 5.199-3.699 5.795-6.68.5567-2.032.4739-4.443-1.118-6.011-1.278-1.509-3.315-1.69-5.132-1.993-3.502-.3508-7.089.2249-10.26 1.762-3.287 1.484-6.284 3.572-9.731 4.705-3.899 1.434-7.964 2.354-12.04 3.126-1.495 1.382-1.277 3.872.3 5.1z" fill="#f7d7bb"/><path class="st7" d="m189.1 144.6h.2c1.4.1 3.4.5 5.4 1.6 0 0-1.2-1.2-2.9-2.1-.8-.4-1.7-.8-2.7-.9 0 .4.1.9.1 1.3l-.1.1z" fill="#dbb798"/><path class="st3" d="m163.2 153.6s-6.7-2.4-11.2-1.4c-4.6 1-6.4 6.6-6.4 6.6l17.7-.2c0-.1 2.4-4.3-.1-5z" fill="#f7d7bb"/></g></g><path class="st46" d="m130.8 74.2h-51.2c-2 0-3.5-1.6-3.5-3.5v-36.6c0-2 1.6-3.5 3.5-3.5h51.2c2 0 3.5 1.6 3.5 3.5v36.5c0 2-1.6 3.6-3.5 3.6z" fill="#00abe9"/><path class="st47" d="m51.8 76c-.4 0-.7-.3-.8-.7-.3-1.4-.8-1.8-2.2-2.2-.4-.1-.7-.4-.7-.8s.3-.7.7-.8c1.4-.3 1.8-.8 2.2-2.2.1-.4.4-.7.8-.7s.7.3.8.7c.3 1.4.8 1.8 2.2 2.2.4.1.7.4.7.8s-.3.7-.7.8c-1.4.3-1.8.8-2.2 2.2 0 .5-.4.7-.8.7zm-2.2-3.6c1.2.4 1.8 1 2.2 2.2.4-1.2 1-1.8 2.2-2.2-1.2-.4-1.8-1-2.2-2.2-.4 1.2-1 1.8-2.2 2.2z"/><path class="st2" d="m63.4 83c-1.4 0-2.6-1.2-2.6-2.6s1.2-2.6 2.6-2.6 2.6 1.2 2.6 2.6c0 1.5-1.1 2.6-2.6 2.6zm0-4.1c-.9 0-1.6.7-1.6 1.6s.7 1.6 1.6 1.6 1.6-.7 1.6-1.6-.7-1.6-1.6-1.6z"/><path class="st48" d="m65 64.6c-.3 0-.5-.2-.5-.5v-1.3c0-.3.2-.5.5-.5s.5.2.5.5v1.3c0 .3-.2.5-.5.5z"/><path class="st48" d="m65 68.1c-.3 0-.5-.2-.5-.5v-1.3c0-.3.2-.5.5-.5s.5.2.5.5v1.3c0 .3-.2.5-.5.5z"/><path class="st48" d="m64 65.6h-1.3c-.3 0-.5-.2-.5-.5s.2-.5.5-.5h1.3c.3 0 .5.2.5.5s-.2.5-.5.5z"/><path class="st48" d="m67.4 65.6h-1.3c-.3 0-.5-.2-.5-.5s.2-.5.5-.5h1.3c.3 0 .5.2.5.5s-.3.5-.5.5z"/><linearGradient id="SVGID_2_" x1="51.26" x2="52.26" y1="86.58" y2="86.58" gradientUnits="userSpaceOnUse"><stop stop-color="#2A2A85" offset="0"/><stop stop-color="#262E77" offset=".2151"/><stop stop-color="#212467" offset=".4832"/><stop stop-color="#1F1C5C" offset=".7514"/><stop stop-color="#1C1346" offset="1"/></linearGradient><path class="st49" d="m51.8 87.7c-.3 0-.5-.2-.5-.5v-1.3c0-.3.2-.5.5-.5s.5.2.5.5v1.3c0 .3-.3.5-.5.5z" fill="#2a2a85"/><linearGradient id="SVGID_3_" x1="51.26" x2="52.26" y1="90.1" y2="90.1" gradientUnits="userSpaceOnUse"><stop stop-color="#2A2A85" offset="0"/><stop stop-color="#262E77" offset=".2151"/><stop stop-color="#212467" offset=".4832"/><stop stop-color="#1F1C5C" offset=".7514"/><stop stop-color="#1C1346" offset="1"/></linearGradient><path class="st50" d="m51.8 91.3c-.3 0-.5-.2-.5-.5v-1.3c0-.3.2-.5.5-.5s.5.2.5.5v1.3c0 .2-.3.5-.5.5z" fill="#2a2a85"/><linearGradient id="SVGID_4_" x1="48.9" x2="51.22" y1="88.23" y2="88.23" gradientUnits="userSpaceOnUse"><stop stop-color="#2A2A85" offset="0"/><stop stop-color="#262E77" offset=".2151"/><stop stop-color="#212467" offset=".4832"/><stop stop-color="#1F1C5C" offset=".7514"/><stop stop-color="#1C1346" offset="1"/></linearGradient><path class="st51" d="m50.7 88.7h-1.3c-.3 0-.5-.2-.5-.5s.2-.5.5-.5h1.3c.3 0 .5.2.5.5s-.2.5-.5.5z" fill="#2a2a85"/><linearGradient id="SVGID_5_" x1="52.3" x2="54.61" y1="88.23" y2="88.23" gradientUnits="userSpaceOnUse"><stop stop-color="#2A2A85" offset="0"/><stop stop-color="#262E77" offset=".2151"/><stop stop-color="#212467" offset=".4832"/><stop stop-color="#1F1C5C" offset=".7514"/><stop stop-color="#1C1346" offset="1"/></linearGradient><path class="st52" d="m54.1 88.7h-1.3c-.3 0-.5-.2-.5-.5s.2-.5.5-.5h1.3c.3 0 .5.2.5.5s-.2.5-.5.5z" fill="#2a2a85"/><path class="st47" d="m245.5 83.2c-.3-1.4-.8-1.8-2.2-2.2-.4-.1-.7-.4-.7-.8s.3-.7.7-.8c1.4-.3 1.8-.8 2.2-2.2.1-.4.4-.7.8-.7s.7.3.8.7c.3 1.4.8 1.8 2.2 2.2.4.1.7.4.7.8s-.3.7-.7.8c-1.4.3-1.8.8-2.2 2.2-.1.4-.4.7-.8.7-.4-.1-.7-.4-.8-.7zm.8-5.2c-.4 1.2-1 1.8-2.2 2.2 1.2.4 1.8 1 2.2 2.2.4-1.2 1-1.8 2.2-2.2-1.2-.4-1.8-1-2.2-2.2z"/><path class="st2" d="m232.1 88.2c0-1.4 1.2-2.6 2.6-2.6s2.6 1.2 2.6 2.6-1.2 2.6-2.6 2.6-2.6-1.2-2.6-2.6zm1 0c0 .9.7 1.6 1.6 1.6s1.6-.7 1.6-1.6-.7-1.6-1.6-1.6c-.8 0-1.6.7-1.6 1.6z"/><path class="st48" d="m233.1 72.4c.3 0 .5-.2.5-.5v-1.3c0-.3-.2-.5-.5-.5s-.5.2-.5.5v1.3c0 .2.3.5.5.5z"/><path class="st48" d="m233.1 75.9c.3 0 .5-.2.5-.5v-1.3c0-.3-.2-.5-.5-.5s-.5.2-.5.5v1.3c0 .3.3.5.5.5z"/><path class="st48" d="m234.2 73.3h1.3c.3 0 .5-.2.5-.5s-.2-.5-.5-.5h-1.3c-.3 0-.5.2-.5.5s.2.5.5.5z"/><path class="st48" d="m230.8 73.3h1.3c.3 0 .5-.2.5-.5s-.2-.5-.5-.5h-1.3c-.3 0-.5.2-.5.5s.2.5.5.5z"/><linearGradient id="SVGID_6_" x1="245.9" x2="246.9" y1="94.34" y2="94.34" gradientUnits="userSpaceOnUse"><stop stop-color="#2A2A85" offset="0"/><stop stop-color="#262E77" offset=".2151"/><stop stop-color="#212467" offset=".4832"/><stop stop-color="#1F1C5C" offset=".7514"/><stop stop-color="#1C1346" offset="1"/></linearGradient><path class="st53" d="m246.4 95.5c.3 0 .5-.2.5-.5v-1.3c0-.3-.2-.5-.5-.5s-.5.2-.5.5v1.3c0 .3.2.5.5.5z" fill="#2a2a85"/><linearGradient id="SVGID_7_" x1="245.9" x2="246.9" y1="97.86" y2="97.86" gradientUnits="userSpaceOnUse"><stop stop-color="#2A2A85" offset="0"/><stop stop-color="#262E77" offset=".2151"/><stop stop-color="#212467" offset=".4832"/><stop stop-color="#1F1C5C" offset=".7514"/><stop stop-color="#1C1346" offset="1"/></linearGradient><path class="st54" d="m246.4 99c.3 0 .5-.2.5-.5v-1.3c0-.3-.2-.5-.5-.5s-.5.2-.5.5v1.3c0 .3.2.5.5.5z" fill="#2a2a85"/><linearGradient id="SVGID_8_" x1="246.9" x2="249.3" y1="95.99" y2="95.99" gradientUnits="userSpaceOnUse"><stop stop-color="#2A2A85" offset="0"/><stop stop-color="#262E77" offset=".2151"/><stop stop-color="#212467" offset=".4832"/><stop stop-color="#1F1C5C" offset=".7514"/><stop stop-color="#1C1346" offset="1"/></linearGradient><path class="st55" d="m247.4 96.5h1.3c.3 0 .5-.2.5-.5s-.2-.5-.5-.5h-1.3c-.3 0-.5.2-.5.5s.3.5.5.5z" fill="#2a2a85"/><linearGradient id="SVGID_9_" x1="243.5" x2="245.9" y1="95.99" y2="95.99" gradientUnits="userSpaceOnUse"><stop stop-color="#2A2A85" offset="0"/><stop stop-color="#262E77" offset=".2151"/><stop stop-color="#212467" offset=".4832"/><stop stop-color="#1F1C5C" offset=".7514"/><stop stop-color="#1C1346" offset="1"/></linearGradient><path class="st56" d="m244 96.5h1.3c.3 0 .5-.2.5-.5s-.2-.5-.5-.5h-1.3c-.3 0-.5.2-.5.5s.3.5.5.5z" fill="#2a2a85"/><linearGradient id="SVGID_10_" x1="62.88" x2="98.52" y1="148.1" y2="148.1" gradientUnits="userSpaceOnUse"><stop stop-color="#00BAD9" offset="0"/><stop stop-color="#0072C4" offset="1"/></linearGradient><path class="st57" d="m62.9 138.5 4.7 19.7c.1.5.6.9 1.1.9h28.7c.8 0 1.3-.7 1.1-1.4l-4.7-19.7c-.1-.5-.6-.9-1.1-.9h-28.7c-.7 0-1.3.7-1.1 1.4z"/><path class="st58" d="m91.6 137.1 5 22h.8c.8 0 1.3-.7 1.1-1.4l-4.7-19.7c-.1-.5-.6-.9-1.1-.9h-1.1z"/><linearGradient id="SVGID_11_" x1="77.08" x2="81.43" y1="149.2" y2="149.2" gradientUnits="userSpaceOnUse"><stop stop-color="#2A2A85" offset="0"/><stop stop-color="#262E77" offset=".2151"/><stop stop-color="#212467" offset=".4832"/><stop stop-color="#1F1C5C" offset=".7514"/><stop stop-color="#1C1346" offset="1"/></linearGradient><path class="st59" d="m77.1 149.2c0 1.2 1 2.2 2.2 2.2s2.2-1 2.2-2.2-1-2.2-2.2-2.2c-1.2.1-2.2 1-2.2 2.2z"/><path class="st60" d="m115.5 158.9h65.3c1.1 0 2.1-.9 2.1-2.1 0-1.1-.9-2.1-2.1-2.1h-65.3c-1.1 0-2.1.9-2.1 2.1s.9 2.1 2.1 2.1z"/><linearGradient id="SVGID_12_" x1="90.61" x2="156.5" y1="138.5" y2="138.5" gradientUnits="userSpaceOnUse"><stop stop-color="#2A2A85" offset="0"/><stop stop-color="#262E77" offset=".2151"/><stop stop-color="#212467" offset=".4832"/><stop stop-color="#1F1C5C" offset=".7514"/><stop stop-color="#1C1346" offset="1"/></linearGradient><path class="st61" d="m90.7 120.8 8.6 36.4c.2 1 1.1 1.7 2.1 1.7h53c1.4 0 2.4-1.3 2.1-2.6l-8.6-36.4c-.2-1-1.1-1.7-2.1-1.7h-53c-1.4 0-2.5 1.3-2.1 2.6z"/><path class="st60" d="m143.7 118.2 9.2 40.7h1.5c1.4 0 2.4-1.3 2.1-2.6l-8.6-36.4c-.2-1-1.1-1.7-2.1-1.7h-2.1z"/><circle class="st48" cx="120.9" cy="140.7" r="4"/><path class="st6" d="m155.2 150.2c-.1 0-.2-.1-.2-.2l-6.9-29.3c0-.1 0-.2.1-.2s.2 0 .2.1l6.9 29.3c.1.2.1.3-.1.3z"/><path class="st12" d="m29.7 158.9h237.5c.8 0 1.5.7 1.5 1.5s-.7 1.5-1.5 1.5h-237.5c-.8 0-1.5-.7-1.5-1.5s.7-1.5 1.5-1.5z"/><g class="st14"><g class="st15"><path class="st64" d="m196.1 44.9h-6.5c-.7 0-1.3.6-1.3 1.3l.1 17.3c0 1.1.9 2.1 2.1 2.1l22.7-.1c.7 0 1.3-.6 1.2-1.3l-.1-16.1c0-.6-.5-1.1-1.1-1.1h-13.2l-3.9-2.1z"/><path class="st2" d="m214.4 64.3v-11.2l-26 .1v11.2c0 .7.6 1.3 1.3 1.2l23.5-.1c.6 0 1.2-.6 1.2-1.2z"/><path class="st6" d="m189.8 53.1 23-.1c0-1.8-1.5-3.2-3.3-3.2l-16.5.1c-1.8 0-3.2 1.4-3.2 3.2z"/><path class="st65" d="m210.8 51.5v1.6h-1v-1.6c0-.3.2-.5.5-.5s.5.2.5.5z"/><path class="st65" d="m208.6 51.5v1.6h-1v-1.6c0-.3.2-.5.5-.5.2 0 .5.2.5.5z"/><path class="st65" d="m206.3 51.5v1.6h-1v-1.6c0-.3.2-.5.5-.5s.5.2.5.5z"/><path class="st65" d="m204 51.5v1.6h-1v-1.6c0-.3.2-.5.5-.5s.5.2.5.5z"/><path class="st65" d="m201.7 51.5v1.6h-1v-1.6c0-.3.2-.5.5-.5s.5.3.5.5z"/><path class="st65" d="m199.5 51.5v1.6h-1v-1.6c0-.3.2-.5.5-.5.2 0 .5.3.5.5z"/><path class="st65" d="m197.2 51.6v1.6h-1v-1.6c0-.3.2-.5.5-.5.2-.1.5.2.5.5z"/><path class="st65" d="m194.9 51.6v1.6h-1v-1.6c0-.3.2-.5.5-.5s.5.2.5.5z"/><path class="st65" d="m192.6 51.6v1.6h-1v-1.6c0-.3.2-.5.5-.5s.5.2.5.5z"/></g></g><linearGradient id="SVGID_13_" x1="132.5" x2="177.4" y1="14.71" y2="14.71" gradientUnits="userSpaceOnUse"><stop stop-color="#2A2A85" offset="0"/><stop stop-color="#262E77" offset=".2151"/><stop stop-color="#212467" offset=".4832"/><stop stop-color="#1F1C5C" offset=".7514"/><stop stop-color="#1C1346" offset="1"/></linearGradient><path class="st67" d="m132.9 20.7 4.4-1.8h38.9c.6 0 1.1-.5 1.1-1.1v-7.9c0-.6-.5-1.1-1.1-1.1h-41.2c-.6 0-1.1.5-1.1 1.1v5.8l-1.3 4.7c-.1.2.1.3.3.3z"/><path class="st68" d="m134.3 28.9v5h-58.2v-5c0-1.3 1.1-2.4 2.4-2.4h53.4c1.3-.1 2.4 1 2.4 2.4z"/><circle class="st2" cx="123" cy="29.8" r="1.3"/><circle class="st48" cx="127.2" cy="29.8" r="1.3"/><circle class="st63" cx="131.2" cy="29.8" r="1.3"/><polygon class="st2" points="241.5 138.6 241.4 140.4 241.1 143.4 241 143.9 240.8 146.5 240.6 149.3 240.6 149.4 240.3 152.6 240 155.4 239.7 158.9 230 158.9 229.9 158.1 229.6 154.7 229.4 152.6 229.1 149.3 229.1 149.2 228.9 147.2 228.6 143.9 228.6 143.7 228.4 141.7 228.2 138.6"/><polygon class="st6" points="241 143.9 240.8 146.5 240.6 149.3 229.1 149.3 229.1 149.2 228.9 147.2 228.6 143.9"/><rect class="st64" x="227.5" y="136" width="14.7" height="2.6"/><path class="st2" d="m241.1 136h-12.5v-.7c0-.8.7-1.5 1.5-1.5h9.5c.8 0 1.5.7 1.5 1.5v.7z"/><path class="st48" d="m256.3 141.1s-.4.4-1.1.4c-.2 0-.5 0-.8-.1s-.7-.2-1.1-.4c0 0 .2-7.4-2.8-12.6-3-5.1-7-12.2-3.8-15.8s8.3 1.4 10 9.9c1.6 8.6-.4 18.6-.4 18.6z"/><path class="st58" d="m255.1 141.5c-.2 0-.5 0-.8-.1 1-13.2-5-23.4-5.1-23.5-.1-.2-.1-.4.1-.5s.4-.1.5.1c.2.2 6.3 10.6 5.3 24z"/><path class="st48" d="m266.6 129.1c-7 11.4-6.5 14-6.5 14l-.9-.2-.8-.1-1.1-.2c-.6-5 3.3-26.4 10.2-26.4s1.5 9-.9 12.9z"/><path class="st58" d="m266.3 122.6c-.1.1-6 10.6-7.2 20.4l-.8-.1c1.3-9.9 7.2-20.5 7.3-20.6.1-.2.4-.3.5-.1.3-.1.3.2.2.4z"/><path class="st48" d="m251.1 142.7"/><path class="st48" d="m253.2 142.1-1.6.4-.5.1c0-.1-.3-1-5.3-7.6-2-2.7-7.5-10.1-2.5-11.3 4.7-1.1 10 14.6 9.9 18.4z"/><path class="st58" d="m252.4 142.3-.8.2c-1.4-6.4-7.2-14.2-7.3-14.3-.1-.2-.1-.4.1-.6.2-.1.4-.1.6.1.2.4 5.9 8.1 7.4 14.6z"/><path class="st63" d="m263 140.4v18.5h-15.7v-18.5c0-.3.2-.5.5-.5h14.7c.3 0 .5.2.5.5z"/><rect class="st69" x="247.3" y="141.6" width="15.7" height=".5"/><rect class="st69" x="247.3" y="157.1" width="15.7" height=".5"/><linearGradient id="SVGID_14_" x1="28.83" x2="60.01" y1="148.9" y2="148.9" gradientUnits="userSpaceOnUse"><stop stop-color="#2A2A85" offset="0"/><stop stop-color="#262E77" offset=".2151"/><stop stop-color="#212467" offset=".4832"/><stop stop-color="#1F1C5C" offset=".7514"/><stop stop-color="#1C1346" offset="1"/></linearGradient><path class="st70" d="m59.3 146.7h.7v-1.1h-27.8c-.9 0-1.8.4-2.4 1s-1 1.4-1 2.4c0 1.8 1.5 3.3 3.3 3.3h27.9v-1h-.7v-4.6z"/><path class="st6" d="m59.5 146.7v4.6h-25.6c-1.2 0-2.3-1-2.3-2.3 0-.6.3-1.2.7-1.6s1-.7 1.6-.7h25.6z"/><path class="st2" d="m61.7 153.4h.7v-1.1h-27.8c-.9 0-1.8.4-2.4 1s-1 1.4-1 2.4c0 1.8 1.5 3.3 3.3 3.3h27.8v-1h-.7v-4.6z"/><path class="st6" d="m61.8 153.4v4.6h-25.5c-1.2 0-2.3-1-2.3-2.3 0-.6.3-1.2.7-1.6s1-.7 1.6-.7h25.5z"/><path class="st71" d="m126.3 70.9h-42.3c-2 0-3.5-1.6-3.5-3.5v-27.8c0-2 1.6-3.5 3.5-3.5h42.3c2 0 3.5 1.6 3.5 3.5v27.8c.1 1.9-1.5 3.5-3.5 3.5z"/><text class="st72 st73 st74" x="84.457748" y="55.73645" fill="#46d73d" font-family="CocogoosePro-SemiLightItalic" font-size="2.856px"><tspan fill="#ffffff" font-family="sans-serif" font-size="4px">Установка завершена</tspan></text>


<path class="st75" d="m125.5 51.47h-40.8c-0.3 0-0.5-0.2-0.5-0.5s0.2-0.5 0.5-0.5h40.8c0.3 0 0.5 0.2 0.5 0.5-0.1 0.3-0.3 0.5-0.5 0.5z" fill="#4dda43"/><g fill="#ffae0b"><path d="m173.5 17.22-2.05-.8524-2.082.7713.1772-2.213-1.377-1.742 2.159-.5153 1.231-1.848 1.157 1.895 2.138.5997-1.444 1.686z" style="paint-order:normal"/><path d="m165.5 17.22-2.05-.8524-2.082.7713.1772-2.213-1.377-1.742 2.159-.5153 1.231-1.848 1.157 1.895 2.138.5997-1.444 1.686z" style="paint-order:normal"/><path d="m157.5 17.22-2.05-.8524-2.082.7713.1772-2.213-1.377-1.742 2.159-.5153 1.231-1.848 1.157 1.895 2.138.5997-1.444 1.686z" style="paint-order:normal"/><path d="m149.5 17.22-2.05-.8524-2.082.7713.1772-2.213-1.377-1.742 2.159-.5153 1.231-1.848 1.157 1.895 2.138.5997-1.444 1.686z" style="paint-order:normal"/><path d="m141.5 17.22-2.05-.8524-2.082.7713.1772-2.213-1.377-1.742 2.159-.5153 1.231-1.848 1.157 1.895 2.138.5997-1.444 1.686z" style="paint-order:normal"/></g><g stroke-width="2.403"><path class="st73" d="m174.9 52.08s.5344-4.997 2.607-4.165c2.298.7827 3.028 10.38-1.519 10.09-4.097-.3899-1.089-5.927-1.089-5.927z" fill="#f7d7bb"/><path class="st73" d="m150.9 42.44s1.101 13.37 2.573 21.01c1.472 7.641 6.791 10.33 11.17 9.89 5.282-.6394 13.01-6.179 12.03-12.64l-1.223-11.81s.1693-9.798-6.159-12.78c-6.498-2.691-17.85-.726-18.4 6.328z" fill="#f7d7bb"/><g fill="#303030"><path class="st46" d="m175.7 49.34.2557 4.311-1.124.2455-1.763-5.78s-2.462-1.517-2.851-2.203c-.3344-.4407-2.152-6.465-2.152-6.465s-4.516 4.068-11.71 4.611c0 0 5.239-2.942 6.99-4.608 0 0-7.616 6.029-15.85 2.947l2.48-1.569s-3.592-.2432-7.057-3.083c0 0 7.002-6.666 9.397-3.336 0 0-4.036-1.174-5.823-2.838 0 0 3.774-2.108 7.811-.9346 0 0-3.021-1.909-4.134-3.721 0 0 3.708-.2958 7.859.339 2.693.4396 4.431.8306 7.282 3.034 0 0-4.486-1.076-6.431-4.504 0 0 3.544-1.03 8.923.8774 3.307 1.076 5.696 5.435 5.696 5.435s4.388-1.472 5.817 3.867.4268 13.52-.029 14.65c-.1095-.4898-2.553-5.093-3.586-1.272z"/><path class="st46" d="m160.4 49.1s.2558 1.047 1.49 1.292c1.234.2443 4.862-2.422 6.655-1.786 0 0-.4378-1.959-1.787-1.665-1.429-.3212-5.475 1.11-6.358 2.159z"/><path class="st46" d="m158.3 48.64c-.2029-1.662.5816 1.473-.239 2.113-.674.1481-4.407-.6391-5.997.1638 0 0-.7174-2.155 1.252-2.842 1.731.04461 3.888.1209 4.984.5651z"/></g><path class="st76" d="m158.8 50.72c.2129 2.008.3711 3.772.3592 5.829-.006 1.029-.0667 1.813-.0727 2.841-.006 1.029-.0667 1.813-.2976 2.89l-.3344-.4407c.9543.04851 1.684.1461 2.693.4396-.8996.1964-1.799.3928-2.753.3443l-.2249.04908-.1095-.4898c.006-1.029-.1582-1.763-.1522-2.792s.0667-1.813.0727-2.841c.2369-2.107.5284-3.968.82-5.83z" fill="#d8ac8a"/></g><path class="st4" d="m158.5 65.99s2.218 2.985 4.214 2.628c4.026-.7208 4.626-4.331 4.604-4.34z" fill="#fff" stroke-width="2.638"/><path transform="matrix(.9822 -.1881 .1923 .9813 0 0)" d="m143.7 82.16a1.631 1.795 0 01-1.63 1.795 1.631 1.795 0 01-1.631-1.794 1.631 1.795 0 011.63-1.796 1.631 1.795 0 011.632 1.793" style="paint-order:normal"/><path transform="matrix(.9822 -.1881 .1923 .9813 0 0)" d="m152.8 83.13a1.691 1.795 0 01-1.69 1.795 1.691 1.795 0 01-1.691-1.794 1.691 1.795 0 011.69-1.796 1.691 1.795 0 011.692 1.793" style="paint-order:normal"/><path transform="matrix(.9822 -.1881 .1923 .9813 0 0)" d="m151.4 83.51a.4706.539 0 01-.4705.539.4706.539 0 01-.4707-.5388.4706.539 0 01.4703-.5393.4706.539 0 01.4709.5386" fill="#fff" style="paint-order:normal"/><path transform="matrix(.9822 -.1881 .1923 .9813 0 0)" d="m142.3 82.63a.4706.539 0 01-.4705.539.4706.539 0 01-.4707-.5388.4706.539 0 01.4703-.5393.4706.539 0 01.4709.5386" fill="#fff" style="paint-order:normal"/></svg>
