<svg width="139.7" height="156.1" version="1.1" viewBox="0 0 140 156" xmlns="http://www.w3.org/2000/svg">
 <rect x="-.503" y="-.595" width="141" height="158" rx="0" ry="0" fill="#fff" style="paint-order:stroke fill markers"/>
 <rect x="21.08" y="12.64" width="101.4" height="100.6" rx="5.857" ry="4.738" fill="#bfbfbf" style="paint-order:stroke fill markers"/>
 <g transform="matrix(1.076 0 0 1.1 -2.093 11.86)">
  <path d="m37.32 24.85c9.464-5.188 18.88-10.49 28.37-15.61 5.058-1.844 7.495 0.9917 11.95 3.135 7.245 4.028 14.56 7.963 21.76 12.05 4.776 3.304 3.204 5.479 3.532 11.14-0.0193 8.478 0.1354 16.98-5.9e-4 25.44-0.0949 1.511-0.8559 2.865-2.232 3.836l-29.74 16.59c-1.857 0.6445-3.756 0.02465-5.561-0.4554-9.554-5.284-19.11-10.57-28.66-15.85-0.941-1.103-1.999-2.364-2-3.985-0.385-3.562-0.08241-7.185-0.1947-10.77 0.02886-6.922-0.1595-13.86 0.01922-20.77 0.1869-2.281 1.851-4.208 2.757-4.755z" fill="#4a4a4a" stroke="#000" stroke-width=".3542"/>
  <path d="m41.01 54.29h2.711c0.04327-4.165-0.08193-8.339 0.06313-12.5 0.6102-3.08 4.379-5.209 7.456-4.027 2.549 1.005 3.697 3.834 3.386 6.355-0.4014 5.015 3.843 9.908 9.111 10.2 1.854 0.1931 3.818 0.05825 5.532-0.6791 1.95-0.9977 3.57-2.553 4.84-4.268 2.355-3.56 1.576-8.373-1.395-11.46-1.111-1.299-2.64-2.263-4.35-2.795-3.511-0.9655-6.429-0.4083-8.969 1.123l-0.02885 3.393c2.241-1.186 3.341-1.981 5.221-2.159 1.809 0.01942 3.226 0.3369 5.319 1.715 1.74 1.409 2.761 3.535 2.494 5.738-0.1518 1.851-0.8288 3.691-2.412 4.819-1.829 1.631-4.56 2.334-6.978 1.671-2.212-0.5882-4.132-2.158-4.876-4.263-1.046-2.208 0.08529-4.614-0.8595-6.747-0.5794-1.941-1.81-3.796-3.775-4.677-8.141-3.567-12.1 2.83-12.31 4.691-0.5046 1.361-0.2515 4.596-0.214 6.894-0.01922 2.324 5e-3 4.648 0.04329 6.972z" fill="#00cdf4"/>
  <path d="m95.96 50.66 5e-3 2.87c-5.512 1.434-9.289-2.415-10.43-4.045-2.178 3.207-4.981 4.523-10.4 4.212l-0.0096-2.972c3.53 0.712 7.204-0.1676 8.966-4.811 0.1783-0.8268 0.1267-1.686 0.1204-2.452-0.8172-3.835-5.501-5.481-9.007-5.201l-0.0097-2.702c4.781-0.8894 8.343 0.7778 10.5 4.026 1.562-2.469 4.046-4.103 7.483-4.256 0.2129 0.02939 1.117-0.2072 2.775 0.1984l-0.0096 2.792c-3.816-0.4758-7.397 0.5699-8.676 4.832-0.1002 1.14-0.03366 2.153 0.06361 2.78 0.9274 3.341 3.868 5.736 8.626 4.729z" fill="#00cdf4"/>
 </g>
 <text x="132.02061" y="139.17841" font-family="sans-serif" font-size="13.3px" font-weight="400" letter-spacing="0" text-align="center" text-anchor="middle" word-spacing="0" style="line-height:1.25"><tspan x="70.736244" y="139.17841" letter-spacing="-.19" text-align="center" text-anchor="middle">Nox-Setup.exe</tspan></text>
 <g transform="matrix(.3025 0 0 .3128 69.94 61.54)" clip-rule="evenodd" fill-rule="evenodd" image-rendering="optimizeQuality" shape-rendering="geometricPrecision" stroke-linejoin="round" stroke-width="14.97" style="paint-order:stroke fill markers">
  <path d="m62.87 72.08-13.71 13.56-33.47-12.16 0.2962 35.58 46.8 17.64 47.4-17.03v-40.44l14.81-6.081-15.4-16.12-18.37-6.385 0.2962 5.816 11.26 3.914-39.7 15.06-39.1-14.45 11.26-4.257v-6.385l-19.25 7.906-15.11 15.2 47.4 17.64 14.81-15.2 14.81 15.2 27.25-10.03 0.2962 34.36-42.06 15.51z" fill="#00cdf4" stroke="#4a4a4a" stroke-linejoin="round" stroke-width="14.97" style="paint-order:stroke fill markers"/>
  <path d="m84.01 15.66 4.07-1.372-0.0244 31.33-25.16 9.524-24.51-9.568 0.4189-31.07 24.55-9.506 24.73 9.284-24.86 10.13-0.1594 25.81 20.95-7.963z" fill="#00cdf4" stroke="#4a4a4a" stroke-linejoin="round" stroke-width="14.97" style="paint-order:stroke fill markers"/>
  <path d="m67.63 114.5-1.466-22.08 34.13-14.18 0.8376 26.33z" fill="#4a4a4a"/>
 </g>
</svg>
