<svg width="139.7" height="156.1" version="1.1" viewBox="0 0 140 156" xmlns="http://www.w3.org/2000/svg">
 <rect x="-.503" y="-.595" width="141" height="158" rx="0" ry="0" fill="#fff" style="paint-order:stroke fill markers"/>
 <rect x="22.32" y="12.59" width="94.57" height="101" rx="5.26" ry="5.545" clip-rule="evenodd" fill="#e3e3e3" fill-rule="evenodd" image-rendering="optimizeQuality" shape-rendering="geometricPrecision" style="paint-order:stroke fill markers"/>
 <path d="m36.99 24.47 64.8-0.1065c2.316-0.0038 4.184 1.894 4.19 4.256l0.0191 8.527c5e-3 2.362-1.855 4.266-4.171 4.271l-64.8 0.1065c-2.316 0.0038-4.184-1.894-4.19-4.256l-0.01917-8.527c-0.0049-2.362 1.855-4.266 4.171-4.271z" fill="#5eb342" stroke-width="7.108" style="paint-order:stroke fill markers"/>
 <path d="m36.9 44.94 64.95-0.1048c2.274-0.0037 4.108 1.86 4.113 4.179l0.0191 8.371c5e-3 2.318-1.821 4.188-4.094 4.192l-64.95 0.1048c-2.274 0.0037-4.108-1.86-4.113-4.179l-0.01917-8.371c-0.0049-2.318 1.821-4.188 4.094-4.192z" fill="#ffd310" stroke-width="7.043" style="paint-order:stroke fill markers"/>
 <path d="m36.89 85.66 64.92-0.1262c2.284-0.0045 4.126 1.867 4.129 4.196l0.0161 8.409c5e-3 2.329-1.83 4.207-4.114 4.212l-64.92 0.1262c-2.284 5e-3 -4.126-1.867-4.129-4.196l-0.01602-8.409c-0.0049-2.329 1.83-4.207 4.114-4.212z" fill="#18a5d8" stroke-width="7.056" style="paint-order:stroke fill markers"/>
 <text x="131.98987" y="136.64423" font-family="sans-serif" font-size="13.3px" font-weight="400" letter-spacing="0" text-align="center" text-anchor="middle" word-spacing="0" style="line-height:1.25"><tspan x="70.705498" y="136.64423" letter-spacing="-.19" text-align="center" text-anchor="middle">Bluestacks.exe</tspan></text>
 <path d="m36.96 65.17 64.84-0.1272c2.303-0.0045 4.16 1.882 4.164 4.231l0.0161 8.478c5e-3 2.349-1.846 4.243-4.149 4.248l-64.84 0.1272c-2.303 0.0045-4.16-1.882-4.164-4.231l-0.01602-8.478c-0.0049-2.349 1.846-4.243 4.149-4.248z" fill="#cb3a23" stroke-width="7.085" style="paint-order:stroke fill markers"/>
 <g transform="matrix(.2978 0 0 .3287 68.44 59.07)" clip-rule="evenodd" fill="#fff" fill-rule="evenodd" image-rendering="optimizeQuality" shape-rendering="geometricPrecision" stroke-linejoin="round" stroke-width="14.97" style="paint-order:stroke fill markers">
  <path d="m62.87 72.08-13.71 13.56-33.47-12.16 0.2962 35.58 46.8 17.64 47.4-17.03v-40.44l14.81-6.081-15.4-16.12-18.37-6.385 0.2962 5.816 11.26 3.914-39.7 15.06-39.1-14.45 11.26-4.257v-6.385l-19.25 7.906-15.11 15.2 47.4 17.64 14.81-15.2 14.81 15.2 27.25-10.03 0.2962 34.36-42.06 15.51z" fill="#fff" stroke="#18a5d8" stroke-linejoin="round" stroke-width="14.97" style="paint-order:stroke fill markers"/>
  <g clip-rule="nonzero" fill-rule="nonzero" shape-rendering="auto">
   <path d="m65.98-2.006c-1.721-0.6463-3.62-0.6366-5.334 0.02734l-24.55 9.506c-2.847 1.102-4.739 3.824-4.781 6.877l-0.4199 31.07c-0.04189 3.119 1.856 5.938 4.762 7.072l24.51 9.568c1.725 0.6734 3.639 0.6831 5.371 0.02734l25.16-9.525c2.907-1.101 4.831-3.884 4.834-6.992l0.02539-31.33c-0.0045-0.02281-9e-3 -0.0456-0.01367-0.06836-0.01033-0.06003-0.0214-0.1199-0.0332-0.1797-0.07541-1.274-0.4755-2.508-1.162-3.584-0.1371-0.2433-0.2877-0.4787-0.4512-0.7051-0.7878-1.03-1.83-1.838-3.023-2.344-0.05601-0.04443-0.1127-0.08805-0.1699-0.1309z" color="#000000" fill="#18a5d8" style="-inkscape-stroke:none"/>
   <path d="m84.01 15.66 4.07-1.372-0.0244 31.33-25.16 9.524-24.51-9.568 0.4189-31.07 24.55-9.506 24.73 9.284-24.86 10.13-0.1594 25.81 20.95-7.963z" color="#000000" style="-inkscape-stroke:none"/>
  </g>
 </g>
</svg>
