<svg width="139.7" height="156.1" version="1.1" viewBox="0 0 140 156" xmlns="http://www.w3.org/2000/svg">
 <rect x="-.503" y="-.595" width="141" height="158" rx="0" ry="0" fill="#fff" style="paint-order:stroke fill markers"/>
 <text x="132.23055" y="140.83679" font-family="sans-serif" font-size="13.3px" font-weight="400" letter-spacing="0" text-align="center" text-anchor="middle" word-spacing="0" style="line-height:1.25"><tspan x="70.946182" y="140.83679" letter-spacing="-.19" text-align="center" text-anchor="middle">Memu-Setup.exe</tspan></text>
 <rect x="20.38" y="13.27" width="101.4" height="100.6" rx="5.857" ry="4.738" fill="#bfbfbf" style="paint-order:stroke fill markers"/>
 <rect x="49.81" y="45.48" width="42.66" height="36.39" rx=".309" ry=".3153" fill="#fff" style="paint-order:normal"/>
 <path d="m31.32 58.03-0.518-3.257 26.29-5.387-0.2158 4.469z" fill="#f87c67"/>
 <g transform="translate(.5692 20.98)" stroke-linecap="round" stroke-linejoin="round" stroke-width="1.902">
  <path d="m31.19 35.01 48.31-10.39-13.25-21.21c-1.872 0.8579-3.758 1.65-5.475 2.815l-28.1 19.06c-0.9638 0.6538-1.418 1.826-1.527 3.045-0.1217 1.364-0.3072 2.686-0.1524 4.048 0.0993 0.8736 0.1295 1.753 0.1942 2.63z" fill="#9569f8" stroke="#9569f8"/>
  <path d="m61.84 5.406 27.43 39.85 15.68-19.6c-1.502-1.38-2.945-2.796-4.687-3.926l-28.51-18.49c-0.9778-0.6341-2.272-0.6211-3.487-0.2798-1.359 0.3818-2.701 0.6911-3.958 1.322-0.8065 0.4045-1.644 0.7488-2.466 1.123z" fill="#48aefa" stroke="#48aefa"/>
  <path d="m102.5 23.06-29.54 38.41 24.36 7.675c0.8372-1.833 1.729-3.625 2.241-5.593l8.385-32.2c0.2876-1.104-0.1611-2.279-0.9026-3.27-0.8295-1.109-1.583-2.227-2.62-3.16-0.6654-0.5983-1.283-1.245-1.924-1.867z" fill="#87ea39" stroke="#87ea39"/>
 </g>
 <path d="m56.96 97.95-3.108 0.08354 0.518-27.48 5.785 2.84z" fill="#f1da3d"/>
 <g stroke-linejoin="round">
  <path d="m53.98 97.07 1.999-43.77-23.7 4.909c0.3597 1.974 0.1322 1.729 0.839 3.639l11.57 31.26c0.3967 1.072 1.445 1.806 2.632 2.23 1.327 0.4744 2.597 0.9975 3.995 1.213 0.8971 0.1384 1.782 0.3431 2.673 0.5147z" fill="#f87c67" stroke="#f87c67" stroke-linecap="round" stroke-width="1.902"/>
  <path d="m98.58 88.86-40.37-15.32-1.623 23.51c2.051 0.2815 1.658 0.04005 3.755-0.01681l31.46-0.8546c1.177-0.03195 2.223-0.7689 3.008-1.729 0.8779-1.073 1.786-2.079 2.432-3.298 0.4144-0.7821 0.89-1.532 1.335-2.299z" fill="#f1da3d" stroke="#f1da3d" stroke-linecap="round" stroke-width="1.902"/>
  <g transform="matrix(.2948 0 0 .3012 68.91 60.58)" clip-rule="evenodd" fill-rule="evenodd" image-rendering="optimizeQuality" shape-rendering="geometricPrecision" stroke-width="14.97" style="paint-order:stroke fill markers">
   <path d="m62.87 72.08-13.71 13.56-33.47-12.16 0.2962 35.58 46.8 17.64 47.4-17.03v-40.44l14.81-6.081-15.4-16.12-18.37-6.385 0.2962 5.816 11.26 3.914-39.7 15.06-39.1-14.45 11.26-4.257v-6.385l-19.25 7.906-15.11 15.2 47.4 17.64 14.81-15.2 14.81 15.2 27.25-10.03 0.2962 34.36-42.06 15.51z" fill="#fff" stroke="#f1da3d" stroke-linejoin="round" stroke-width="14.97" style="paint-order:stroke fill markers"/>
   <path d="m84.01 15.66 4.07-1.372-0.0244 31.33-25.16 9.524-24.51-9.568 0.4189-31.07 24.55-9.506 24.73 9.284-24.86 10.13-0.1594 25.81 20.95-7.963z" fill="#fff" stroke="#f1da3d" stroke-linejoin="round" stroke-width="14.97" style="paint-order:stroke fill markers"/>
   <path d="m67.63 114.5 0.9035-25.52 31.76-10.74 0.8376 26.33z" fill="#f1da3d"/>
  </g>
 </g>
</svg>
