<svg version="1.1" viewBox="0 0 284.3 89.04" xmlns="http://www.w3.org/2000/svg">
 <g transform="translate(-9.594,-119.3)">
  <path d="m290.2 135.7-0.0869 40.27-199.8 8e-3 0.1972-40.38z" fill="#5eb342" stroke-width=".8785"/>
 </g>
 <g transform="translate(-2.561 -.882)" fill="#fff" aria-label="BLUESTACKS">
  <path d="m95.86 27.48h6.512q4.165 0 6.307 1.173 2.171 1.173 2.171 4.136 0 1.789-0.8507 3.021-0.8213 1.232-2.376 1.496v0.1467q1.027 0.2347 1.877 0.7627 0.88 0.4987 1.379 1.496 0.4987 0.9973 0.4987 2.64 0 2.845-2.083 4.459-2.053 1.613-5.603 1.613h-7.832zm4.429 8.301h2.581q1.936 0 2.669-0.5867 0.7627-0.616 0.7627-1.819t-0.88-1.731-2.787-0.528h-2.347zm0 3.52v5.456h2.904q1.995 0 2.787-0.7627 0.792-0.792 0.792-2.083 0-1.173-0.8213-1.877-0.792-0.7333-2.904-0.7333z"/>
  <path d="m115.6 48.43v-20.94h4.429v17.28h8.507v3.667z"/>
  <path d="m148.9 27.48v13.55q0 2.171-0.968 3.931-0.9387 1.731-2.875 2.757-1.936 0.9973-4.84 0.9973-4.165 0-6.336-2.112-2.171-2.141-2.171-5.632v-13.49h4.429v12.82q0 2.611 1.056 3.667 1.056 1.027 3.139 1.027 2.171 0 3.139-1.144 0.9973-1.144 0.9973-3.579v-12.79z"/>
  <path d="m166.1 48.43h-12.06v-20.94h12.06v3.637h-7.627v4.605h7.099v3.637h-7.099v5.397h7.627z"/>
  <path d="m182.8 42.62q0 2.787-2.024 4.459-1.995 1.643-5.691 1.643-3.315 0-5.925-1.261v-4.136q1.496 0.6453 3.08 1.203 1.613 0.528 3.197 0.528 1.643 0 2.317-0.616 0.704-0.6453 0.704-1.613 0-0.792-0.5573-1.349-0.528-0.5573-1.437-1.027-0.9093-0.4987-2.083-1.056-0.7333-0.352-1.584-0.8213-0.8507-0.4987-1.643-1.203-0.7627-0.7333-1.261-1.76-0.4987-1.027-0.4987-2.464 0-2.816 1.907-4.371 1.907-1.584 5.192-1.584 1.643 0 3.109 0.3813 1.467 0.3813 3.109 1.085l-1.437 3.461q-1.437-0.5867-2.581-0.9093-1.144-0.3227-2.347-0.3227-1.261 0-1.936 0.5867-0.6747 0.5867-0.6747 1.525 0 1.115 0.9973 1.76 0.9973 0.6453 2.963 1.584 1.613 0.7627 2.728 1.584 1.144 0.8213 1.76 1.936 0.616 1.115 0.616 2.757z"/>
  <path d="m194.7 48.43h-4.429v-17.25h-5.691v-3.696h15.81v3.696h-5.691z"/>
  <path d="m214.4 48.43-1.525-4.987h-7.627l-1.525 4.987h-4.781l7.392-21.03h5.427l7.421 21.03zm-2.581-8.712-1.525-4.869q-0.1467-0.4987-0.3813-1.261-0.2347-0.7627-0.4693-1.555-0.2347-0.792-0.3813-1.379-0.1467 0.5867-0.4107 1.467-0.2347 0.8507-0.4693 1.643-0.2053 0.7627-0.3227 1.085l-1.496 4.869z"/>
  <path d="m230.1 30.89q-2.552 0-3.901 1.907t-1.349 5.221q0 3.344 1.232 5.192 1.261 1.819 4.019 1.819 1.261 0 2.552-0.2933t2.787-0.8213v3.725q-1.379 0.5573-2.728 0.8213t-3.021 0.264q-3.256 0-5.339-1.32-2.083-1.349-3.08-3.755-0.9973-2.435-0.9973-5.661 0-3.168 1.144-5.603t3.315-3.813q2.2-1.379 5.368-1.379 1.555 0 3.109 0.4107 1.584 0.3813 3.021 1.056l-1.437 3.608q-1.173-0.5573-2.376-0.968-1.173-0.4107-2.317-0.4107z"/>
  <path d="m256.7 48.43h-5.045l-5.485-8.829-1.877 1.349v7.48h-4.429v-20.94h4.429v9.592q0.44-0.616 0.88-1.232t0.88-1.232l5.661-7.128h4.928l-7.304 9.269z"/>
  <path d="m271.7 42.62q0 2.787-2.024 4.459-1.995 1.643-5.691 1.643-3.315 0-5.925-1.261v-4.136q1.496 0.6453 3.08 1.203 1.613 0.528 3.197 0.528 1.643 0 2.317-0.616 0.704-0.6453 0.704-1.613 0-0.792-0.5573-1.349-0.528-0.5573-1.437-1.027-0.9093-0.4987-2.083-1.056-0.7333-0.352-1.584-0.8213-0.8507-0.4987-1.643-1.203-0.7627-0.7333-1.261-1.76-0.4987-1.027-0.4987-2.464 0-2.816 1.907-4.371 1.907-1.584 5.192-1.584 1.643 0 3.109 0.3813 1.467 0.3813 3.109 1.085l-1.437 3.461q-1.437-0.5867-2.581-0.9093-1.144-0.3227-2.347-0.3227-1.261 0-1.936 0.5867-0.6747 0.5867-0.6747 1.525 0 1.115 0.9973 1.76 0.9973 0.6453 2.963 1.584 1.613 0.7627 2.728 1.584 1.144 0.8213 1.76 1.936 0.616 1.115 0.616 2.757z"/>
 </g>
 <g transform="matrix(.6121 0 0 .6015 162.4 12.96)" stroke-linecap="round" stroke-linejoin="round">
  <g stroke-linecap="round" stroke-linejoin="round">
   <path d="m-154.2 18.66a7.016 7.016 0 0 0-5.256 1.1l-44.41 30.32-40.39-21.45a7.016 7.016 0 0 0-9.488 2.904 7.016 7.016 0 0 0 2.904 9.488l44.13 23.44a7.017 7.017 0 0 0 7.246-0.4004l47.91-32.71a7.016 7.016 0 0 0 1.84-9.752 7.016 7.016 0 0 0-4.494-2.939z" color="#000000" fill="#5eb342" style="-inkscape-stroke:none;paint-order:stroke fill markers"/>
   <path d="m-154 33.31a7.016 7.016 0 0 0-5.258 1.1l-44.41 30.31-40.39-21.45a7.016 7.016 0 0 0-9.486 2.904 7.016 7.016 0 0 0 2.904 9.488l44.13 23.44a7.017 7.017 0 0 0 7.248-0.4004l47.91-32.71a7.016 7.016 0 0 0 1.84-9.75 7.016 7.016 0 0 0-4.494-2.939z" color="#000000" fill="#ffd310" style="-inkscape-stroke:none;paint-order:stroke fill markers"/>
   <path d="m-153.5 47.62a7.016 7.016 0 0 0-5.256 1.1l-44.41 30.31-40.39-21.45a7.016 7.016 0 0 0-9.488 2.906 7.016 7.016 0 0 0 2.906 9.486l44.13 23.44a7.017 7.017 0 0 0 7.248-0.4023l47.91-32.71a7.016 7.016 0 0 0 1.84-9.752 7.016 7.016 0 0 0-4.496-2.938z" color="#000000" fill="#cb3a23" style="-inkscape-stroke:none;paint-order:stroke fill markers"/>
   <path d="m-152.7 63.36a7.016 7.016 0 0 0-5.256 1.1l-44.41 30.31-40.39-21.45a7.016 7.016 0 0 0-9.488 2.906 7.016 7.016 0 0 0 2.906 9.486l44.13 23.44a7.017 7.017 0 0 0 7.248-0.4023l47.91-32.71a7.016 7.016 0 0 0 1.838-9.75 7.016 7.016 0 0 0-4.494-2.939z" color="#000000" fill="#18a5d8" style="-inkscape-stroke:none;paint-order:stroke fill markers"/>
  </g>
  <path d="m-204.1 40.01-38.81-21.9 37.15-20.64 40.14 14.09z" fill="#5eb342"/>
 </g>
</svg>
