<svg width="200" height="200" version="1.1" viewBox="0 -7 75 80" xmlns="http://www.w3.org/2000/svg">
 <path d="M75 1v45H1V1h74m1-1H0v54h30.002L30 59.999h-8.725s-2.074.305-3.5 1.75c-1.552 1.572-1.772 3.501-1.772 3.501L16 66h44l-.006-.675s-.039-1.78-1.619-3.401c-2.095-2.15-4.225-1.955-4.225-1.955l-8.147.03V54H76z" fill="#2f91f2"/>
 <g transform="matrix(.4122 0 0 .4476 23.71 2.951)">
  <path d="m31.95 29.96 35.17 14.93-35.17 18.67-31.17-18.67z" fill="#18a5d8" stroke-width="1.51"/>
  <path d="m31.95 19.29 35.17 16-35.17 18.67-31.17-18.67z" fill="#cb3a23" stroke-width="1.509"/>
  <path d="m31.95 8.627 35.17 16-35.17 18.67-30.92-18.67z" fill="#fde05f" stroke-width="1.457"/>
  <path d="m31.95-2.039 35.17 15.79-35.17 18.88-31.23-18.75z" fill="#5eb342" stroke-width="1.441"/>
 </g>
 <g transform="matrix(.4095 0 0 .4602 -4.442 -4.533)" fill="#7cb342" stroke="#7cb342" stroke-linecap="round" stroke-linejoin="round" stroke-width=".4" aria-label="BlueStacks">
  <path d="m36.7 95.82q0 1.445-.5469 2.552t-1.471 1.823q-1.094.8594-2.409 1.224-1.302.3646-3.32.3646h-6.875v-19.39h5.742q2.122 0 3.177.1562 1.055.1562 2.018.651 1.068.5599 1.549 1.445.4818.8724.4818 2.096 0 1.38-.7031 2.357-.7031.9635-1.875 1.549v.1042q1.966.4036 3.099 1.732 1.133 1.315 1.133 3.333zm-4.336-8.737q0-.7031-.2344-1.185t-.7552-.7812q-.612-.3516-1.484-.4297-.8724-.09115-2.161-.09115h-3.073v5.599h3.333q1.211 0 1.927-.1172.7161-.1302 1.328-.5208.612-.3906.8594-1.003.2604-.625.2604-1.471zm1.654 8.841q0-1.172-.3516-1.862-.3516-.6901-1.276-1.172-.625-.3255-1.523-.4167-.8854-.1042-2.161-.1042h-4.049v7.214h3.411q1.693 0 2.773-.1693 1.081-.1823 1.771-.651.7292-.5078 1.068-1.159.3385-.651.3385-1.68z" style=""/>
  <path d="m42.64 101.8h-2.448v-20.26h2.448z" style=""/>
  <path d="m59.57 101.8h-2.448v-1.615q-1.237.9766-2.37 1.497-1.133.5208-2.5.5208-2.292 0-3.568-1.393-1.276-1.406-1.276-4.115v-9.44h2.448v8.281q0 1.107.1042 1.901.1042.7812.4427 1.341.3516.5729.9115.8333t1.628.2604q.9505 0 2.07-.4948 1.133-.4948 2.109-1.263v-10.86h2.448z" style=""/>
  <path d="m76.56 94.77h-10.72q0 1.341.4036 2.344.4036.9896 1.107 1.628.6771.625 1.602.9375.9375.3125 2.057.3125 1.484 0 2.982-.5859 1.51-.599 2.148-1.172h.1302v2.669q-1.237.5208-2.526.8724-1.289.3516-2.708.3516-3.62 0-5.651-1.953-2.031-1.966-2.031-5.573 0-3.568 1.94-5.664 1.953-2.096 5.13-2.096 2.943 0 4.531 1.719 1.602 1.719 1.602 4.883zm-2.383-1.875q-.01302-1.927-.9766-2.982-.9505-1.055-2.904-1.055-1.966 0-3.138 1.159-1.159 1.159-1.315 2.878z" style=""/>
  <path d="m94.55 96.25q0 1.133-.5339 2.24-.5208 1.107-1.471 1.875-1.042.8333-2.435 1.302-1.38.4688-3.333.4688-2.096 0-3.776-.3906-1.667-.3906-3.398-1.159v-3.229h.1823q1.471 1.224 3.398 1.888 1.927.6641 3.62.6641 2.396 0 3.724-.8984 1.341-.8984 1.341-2.396 0-1.289-.638-1.901-.625-.612-1.914-.9505-.9766-.2604-2.122-.4297-1.133-.1693-2.409-.4297-2.578-.5469-3.828-1.862-1.237-1.328-1.237-3.451 0-2.435 2.057-3.984 2.057-1.562 5.221-1.562 2.044 0 3.75.3906t3.021.9635v3.047h-.1823q-1.107-.9375-2.917-1.549-1.797-.625-3.685-.625-2.07 0-3.333.8594-1.25.8594-1.25 2.214 0 1.211.625 1.901t2.201 1.055q.8333.1823 2.37.4427 1.536.2604 2.604.5339 2.161.5729 3.255 1.732 1.094 1.159 1.094 3.242z" style=""/>
  <path d="m106.1 101.7q-.6901.1823-1.51.2995-.8073.1172-1.445.1172-2.227 0-3.385-1.198-1.159-1.198-1.159-3.841v-7.734h-1.654v-2.057h1.654v-4.18h2.448v4.18h5.052v2.057h-5.052v6.628q0 1.146.0521 1.797.0521.638.3646 1.198.2865.5208.7812.7682.5078.2344 1.536.2344.599 0 1.25-.1693.651-.1823.9375-.2995h.1302z" style=""/>
  <path d="m120.3 101.8h-2.435v-1.549q-.3255.2214-.8854.625-.5469.3906-1.068.625-.612.2995-1.406.4948-.7943.2083-1.862.2083-1.966 0-3.333-1.302-1.367-1.302-1.367-3.32 0-1.654.7031-2.669.7161-1.029 2.031-1.615 1.328-.5859 3.19-.7943 1.862-.2083 3.997-.3125v-.3776q0-.8333-.2995-1.38-.2865-.5469-.8333-.8594-.5208-.2995-1.25-.4036-.7292-.1042-1.523-.1042-.9635 0-2.148.2604-1.185.2474-2.448.7292h-.1302v-2.487q.7162-.1953 2.07-.4297 1.354-.2344 2.669-.2344 1.536 0 2.669.2604 1.146.2474 1.979.8594.8203.599 1.25 1.549.4297.9505.4297 2.357zm-2.435-3.581v-4.049q-1.12.0651-2.643.1953-1.51.1302-2.396.3776-1.055.2995-1.706.9375-.651.625-.651 1.732 0 1.25.7552 1.888.7552.625 2.305.625 1.289 0 2.357-.4948 1.068-.5078 1.979-1.211z" style=""/>
  <path d="m135.8 100.9q-1.224.5859-2.331.9115-1.094.3255-2.331.3255-1.576 0-2.891-.4557-1.315-.4688-2.253-1.406-.9505-.9375-1.471-2.37t-.5208-3.346q0-3.568 1.953-5.599 1.966-2.031 5.182-2.031 1.25 0 2.448.3516 1.211.3516 2.214.8594v2.721h-.1302q-1.12-.8724-2.318-1.341-1.185-.4688-2.318-.4688-2.083 0-3.294 1.406-1.198 1.393-1.198 4.102 0 2.63 1.172 4.049 1.185 1.406 3.32 1.406.7422 0 1.51-.1953.7682-.1953 1.38-.5078.5338-.2734 1.003-.5729.4688-.3125.7422-.5339h.1302z" style=""/>
  <path d="m152.2 101.8h-3.229l-5.833-6.367-1.589 1.51v4.857h-2.448v-20.26h2.448v12.99l7.07-7.279h3.086l-6.758 6.719z" style=""/>
  <path d="m165.1 97.59q0 1.992-1.654 3.268-1.641 1.276-4.492 1.276-1.615 0-2.969-.3776-1.341-.3906-2.253-.8464v-2.747h.1302q1.159.8724 2.578 1.393 1.419.5078 2.721.5078 1.615 0 2.526-.5208.9115-.5208.9115-1.641 0-.8594-.4948-1.302-.4948-.4427-1.901-.7552-.5208-.1172-1.367-.2734-.8333-.1562-1.523-.3385-1.914-.5078-2.721-1.484-.7943-.9896-.7943-2.422 0-.8984.3646-1.693.3776-.7943 1.133-1.419.7292-.612 1.849-.9635 1.133-.3646 2.526-.3646 1.302 0 2.63.3255 1.341.3125 2.227.7682v2.617h-.1302q-.9375-.6901-2.279-1.159-1.341-.4818-2.63-.4818-1.341 0-2.266.5208-.9245.5078-.9245 1.523 0 .8984.5599 1.354.5469.4557 1.771.7422.6771.1562 1.51.3125.8464.1562 1.406.2865 1.706.3906 2.63 1.341.9245.9635.9245 2.552z" style=""/>
 </g>
 <g transform="matrix(.4 0 0 .4 -2.463 -11.05)" fill="#fff" aria-label="3">
  <path d="m104.3 51.66q0.6875 0.6159 1.132 1.547 0.444 0.931 0.444 2.406 0 1.461-0.53 2.678t-1.49 2.12q-1.074 1.003-2.535 1.49-1.447 0.4727-3.18 0.4727-1.776 0-3.495-0.4297-1.719-0.4154-2.822-0.9167v-2.993h0.2148q1.217 0.8021 2.865 1.332 1.647 0.5299 3.18 0.5299 0.9023 0 1.919-0.3008 1.017-0.3008 1.647-0.888 0.6588-0.6302 0.974-1.389 0.3294-0.7591 0.3294-1.919 0-1.146-0.3724-1.891-0.3581-0.7591-1.003-1.189-0.6445-0.444-1.561-0.6016-0.9167-0.1719-1.977-0.1719h-1.289v-2.378h1.003q2.177 0 3.466-0.9023 1.303-0.9167 1.303-2.664 0-0.7734-0.3294-1.346-0.3294-0.5872-0.9167-0.9596-0.6159-0.3724-1.318-0.5156-0.7018-0.1432-1.59-0.1432-1.361 0-2.893 0.487t-2.893 1.375h-0.1432v-2.993q1.017-0.5013 2.707-0.9167 1.704-0.4297 3.294-0.4297 1.561 0 2.75 0.2865t2.148 0.9167q1.031 0.6875 1.561 1.661 0.53 0.974 0.53 2.277 0 1.776-1.26 3.108-1.246 1.318-2.951 1.661v0.2005q0.6875 0.1146 1.576 0.487 0.888 0.3581 1.504 0.9023z"/>
 </g>
 <g transform="matrix(.4 0 0 .4 30 17.58)" fill="#7cb342" aria-label="3">
  <path d="m104.3 51.66q.6875.6159 1.132 1.547.444.931.444 2.406 0 1.461-.53 2.678t-1.49 2.12q-1.074 1.003-2.535 1.49-1.447.4727-3.18.4727-1.776 0-3.495-.4297-1.719-.4154-2.822-.9167v-2.993h.2148q1.217.8021 2.865 1.332 1.647.5299 3.18.5299.9023 0 1.919-.3008 1.017-.3008 1.647-.888.6588-.6302.974-1.389.3294-.7591.3294-1.919 0-1.146-.3724-1.891-.3581-.7591-1.003-1.189-.6445-.444-1.561-.6016-.9167-.1719-1.977-.1719h-1.289v-2.378h1.003q2.177 0 3.466-.9023 1.303-.9167 1.303-2.664 0-.7734-.3294-1.346-.3294-.5872-.9167-.9596-.6159-.3724-1.318-.5156-.7018-.1432-1.59-.1432-1.361 0-2.893.487t-2.893 1.375h-.1432v-2.993q1.017-.5013 2.707-.9167 1.704-.4297 3.294-.4297 1.561 0 2.75.2865 1.189.2865 2.148.9167 1.031.6875 1.561 1.661.53.974.53 2.277 0 1.776-1.26 3.108-1.246 1.318-2.951 1.661v.2005q.6875.1146 1.576.487.888.3581 1.504.9023z" style=""/>
 </g>
</svg>
